<svg version="1.2" xmlns="http://www.w3.org/2000/svg" viewBox="0 0 2000 2000" width="2000" height="2000">
	<title>12424-ai</title>
	<style>
		.s0 { fill: #000000 } 
	</style>
	<g id="_Artboards_">
	</g>
	<g id="Layer 1">
		<g id="&lt;Group&gt;">
			<g id="&lt;Group&gt;">
				<path id="&lt;Path&gt;" class="s0" d="m0 25.5c91.1-2 183.7-10.5 275.8-25.5h-21.7c-84.9 12.9-170.2 20.3-254.1 22.1z"/>
			</g>
			<g id="&lt;Group&gt;">
				<path id="&lt;Path&gt;" class="s0" d="m448.8 0c-64.9 24.1-137.2 43.6-220.2 59.1-52.5 9.6-106.2 6.8-158.1 4.1-23.1-1.2-46.9-2.4-70.5-2.6v3.4c23.5 0.2 47.3 1.4 70.3 2.6 24.7 1.3 49.7 2.6 74.8 2.6 28 0 56.2-1.6 84.1-6.7 86.8-16.3 161.9-36.8 229.2-62.5z"/>
			</g>
			<g id="&lt;Group&gt;">
				<path id="&lt;Path&gt;" class="s0" d="m529.7 0c-84.1 32-169.6 58.6-254.2 79.1-52.9 12.8-99.3 17.8-145.9 15.6-17.6-0.8-35.5-2.2-52.8-3.5-25.1-2-51.1-4-76.8-4.3v3.4c25.6 0.3 51.5 2.3 76.6 4.2 17.3 1.4 35.2 2.8 52.8 3.6q10.6 0.5 21.3 0.5c39.9 0 80.4-5.3 125.6-16.2 87.5-21.2 175.9-49 262.9-82.4z"/>
			</g>
			<g id="&lt;Group&gt;">
				<path id="&lt;Path&gt;" class="s0" d="m649.9 0c-35.5 15-73.1 25.2-109.5 35.1-14.7 4-30 8.2-44.9 12.6-24.7 7.3-49.8 14.8-74.1 22.2-31.5 9.5-64 19.3-96.2 28.7-54.9 15.9-114 31.3-179.6 28.9-29.6-1.1-60-4.1-89.3-7-18.5-1.8-37.6-3.6-56.3-5v3.4c18.6 1.3 37.6 3.2 56 5 29.4 2.9 59.7 5.9 89.5 7q6.9 0.2 13.8 0.2c60.5 0 115.5-14.4 166.9-29.3 32.1-9.4 64.7-19.2 96.2-28.7 24.3-7.3 49.4-14.9 74.1-22.2 14.9-4.4 30.1-8.5 44.8-12.5 39-10.6 79.3-21.6 117.1-38.4z"/>
			</g>
			<g id="&lt;Group&gt;">
				<path id="&lt;Path&gt;" class="s0" d="m735.4 0c-33.9 30.3-80.6 38.5-125.7 46.4-12.5 2.2-25.4 4.5-37.5 7.1-58.9 13.1-122.4 28-187.2 48.9q-7.2 2.3-14.4 4.6c-59.1 19.1-120.2 38.9-182.5 41.9-35 1.7-70.1-2.5-104.1-6.6-27.4-3.3-55.8-6.6-84-6.9v3.4c28 0.3 56.3 3.6 83.6 6.9 28.9 3.4 58.5 6.9 88.3 6.9q8.2 0 16.4-0.4c62.8-2.9 124-22.8 183.3-42q7.2-2.3 14.4-4.6c64.7-20.9 128.1-35.8 186.9-48.8 12.1-2.6 24.3-4.8 37.3-7.1 46.9-8.2 95.3-16.7 130.2-49.7z"/>
			</g>
			<g id="&lt;Group&gt;">
				<path id="&lt;Path&gt;" class="s0" d="m810.5 0c-7.1 64.7-79.1 68-131.9 70.4l-5.6 0.3c-56.6 2.7-130.8 8.2-203.1 26.8-30.3 7.8-60.8 17.6-90.2 27-48.8 15.7-99.2 31.8-150.5 39.7-42.9 6.5-87 3.9-128.3 0.1-11.9-1.1-24.6-1.7-36.8-2.2-21.6-1-43.8-2-64.1-5.9v3.5c20.4 3.8 42.5 4.8 63.9 5.7 12.2 0.6 24.9 1.1 36.7 2.2 23.1 2.1 47.2 3.9 71.4 3.9 19.2 0 38.6-1.1 57.7-4 51.6-7.9 102.1-24.1 151-39.8 29.4-9.4 59.8-19.1 90.1-26.9 71.9-18.6 145.9-24.1 202.4-26.7l5.6-0.3c51.1-2.4 127.9-5.9 135.1-73.8z"/>
			</g>
			<g id="&lt;Group&gt;">
				<path id="&lt;Path&gt;" class="s0" d="m2000 485.3c-7.8-6.5-17.4-12.1-26.8-17.5-7.7-4.5-15-8.7-21.4-13.4-15.7-11.7-31.2-24.2-46.2-36.2q-5.2-4.2-10.4-8.4c-38.2-30.5-76-59.4-119.2-77.5-49-20.5-104-24-157.2-27.3l-6.1-0.4c-29.4-1.9-59.3-3.1-88.2-4.2-31.9-1.2-64.8-2.4-97.1-4.7-54.7-3.8-112.4-9.1-164.2-28.7-52.3-19.7-98.1-52.3-136.1-81.6-10.7-8.3-21.6-16.9-32.2-25.2-30.1-23.8-61.3-48.3-94-69.9-3.6-2.4-7.4-4.8-11.3-7.3-32-20.6-71.6-46.2-82.2-83h-3.5c10.6 38.5 51.2 64.7 83.9 85.8 3.9 2.5 7.6 5 11.2 7.3 32.6 21.5 63.8 46 93.8 69.7 10.6 8.4 21.5 17 32.3 25.3 38.1 29.4 84.2 62.2 136.9 82.1 52.2 19.7 110.2 25.1 165.1 28.9 32.4 2.3 65.4 3.5 97.2 4.7 29 1.1 58.8 2.2 88.2 4.1l6.1 0.4c52.9 3.4 107.6 6.9 156.1 27.1 42.8 17.9 80.4 46.7 118.4 77.1q5.2 4.1 10.4 8.3c15 12.1 30.6 24.6 46.3 36.3 6.5 4.8 14.2 9.3 21.7 13.6 10.2 5.9 20.6 11.9 28.5 19z"/>
			</g>
			<g id="&lt;Group&gt;">
				<path id="&lt;Path&gt;" class="s0" d="m2000 461c-6.9-5.8-15.1-10.9-23.2-15.8-6.6-4-12.8-7.9-18.3-12-13-9.9-25.9-20.2-38.4-30.3q-6.2-5-12.4-9.9c-36.6-29.2-73-56.8-115.6-74.1-73.5-29.9-158.8-31-241.2-32.1-30.3-0.4-58.9-0.7-87-2.5-87.1-5.4-188.2-19.4-278.1-82.8-28.6-20.2-55.5-43.3-81.6-65.8-13.1-11.3-26.7-23-40.4-34.2-4.1-3.3-8.6-6.9-13.2-10.7-31.6-25.2-70.5-56.3-83.8-90.8h-3.6c13.1 35.9 53 67.7 85.3 93.5 4.6 3.7 9.1 7.3 13.2 10.6 13.6 11.2 27.2 22.9 40.3 34.2 26.1 22.5 53.1 45.7 81.9 66 90.5 63.8 192.3 78 279.8 83.4 28.1 1.7 56.8 2.1 87.1 2.5 82.2 1 167.1 2.1 240 31.8 42.2 17.2 78.4 44.6 114.8 73.6q6.2 5 12.4 10c12.5 10 25.5 20.4 38.5 30.3 5.6 4.2 12.2 8.3 18.5 12.2 8.9 5.4 17.9 10.9 25 17.4z"/>
			</g>
			<g id="&lt;Group&gt;">
				<path id="&lt;Path&gt;" class="s0" d="m2000 427.2c-7.9-3.4-17.2-11.4-24.8-18.1-3.4-2.9-6.5-5.7-9.2-7.7-8.9-6.8-17.8-13.8-26.5-20.6-8.4-6.6-17.2-13.5-25.9-20.2-33.6-25.7-70.6-51.5-112.9-65.9-68.1-23.3-144.8-24-219.1-24.7-29.9-0.2-58.2-0.5-86.1-2.1-88.5-5.2-182.2-17.6-267.9-72.3-75.6-48.3-144.2-115.9-198.7-195.6h-4.1c55 80.9 124.4 149.5 201 198.4 86.3 55.2 180.5 67.6 269.5 72.8 28 1.7 56.3 1.9 86.3 2.2 74 0.7 150.5 1.3 218 24.5 41.9 14.3 78.6 39.9 112 65.4 8.6 6.6 17.4 13.5 25.9 20.2 8.6 6.7 17.5 13.8 26.4 20.5 2.7 2 5.8 4.8 9.1 7.6 8.2 7.2 18.2 15.9 27 19.3z"/>
			</g>
			<g id="&lt;Group&gt;">
				<path id="&lt;Path&gt;" class="s0" d="m2000 395.4c-6-6.1-14.8-11.8-22.8-16.9-4.6-3-9-5.8-12.3-8.4l-1.9-1.4c-16.9-13-34.4-26.5-52.2-39-44.2-31-82.2-49.1-119.6-57.2-63.6-13.7-130.6-14.6-195.4-15.5-37.4-0.4-76-1-113.3-4-70.9-5.6-163-19.4-246.6-75.5-64.4-43.2-122.6-104.5-168.8-177.5h-4c46.6 74.2 105.7 136.5 170.9 180.3 84.3 56.6 176.9 70.4 248.2 76.1 37.4 3 76.1 3.5 113.5 4 64.7 0.9 131.5 1.8 194.8 15.4 36.9 8 74.5 26 118.4 56.6 17.7 12.5 35.2 26 52.1 39l1.8 1.4c3.5 2.7 7.9 5.5 12.6 8.5 9.1 5.8 19.2 12.4 24.6 19.2z"/>
			</g>
			<g id="&lt;Group&gt;">
				<path id="&lt;Path&gt;" class="s0" d="m2000 354.4c-7.7-3.5-17-11.8-24.8-18.7-4.4-4-8.7-7.7-12.1-10.2-19.1-13.7-35.4-24.4-51.3-33.8-42.1-24.7-82.9-39.1-124.8-44.1-52.7-6.2-106.5-7-158.5-7.7-42-0.5-85.5-1.1-128-4.6-99.8-8.2-171.4-29.4-232.2-69-63-41-116.6-98.5-155-166.3h-3.9c38.8 69 93.1 127.5 157.1 169.1 61.2 39.9 133.4 61.3 233.8 69.5 42.6 3.5 86.1 4.1 128.1 4.7 52 0.7 105.7 1.4 158.2 7.7 41.4 4.9 81.8 19.1 123.5 43.6 15.8 9.3 32 20 51 33.6 3.3 2.4 7.5 6.1 11.9 10 8.8 7.8 18.6 16.5 27 19.9z"/>
			</g>
			<g id="&lt;Group&gt;">
				<path id="&lt;Path&gt;" class="s0" d="m2000 314.7c-7.3-7.3-19.1-13.8-28.9-19.2-4-2.2-7.7-4.3-10.7-6.1-18.8-11.7-36.5-21.3-54.1-29.4-36.3-16.6-75-26.3-121.8-30.3-45.1-3.8-91-4-135.4-4.1-44.3-0.1-90-0.2-134.9-4.1-63.2-5.4-144.9-17.3-217.1-61.7-63-38.8-115.3-94-151.6-159.8h-3.8c36.6 67 89.6 123.2 153.6 162.6 72.8 44.9 155.1 56.8 218.7 62.3 44.9 3.8 90.8 3.9 135.1 4.1 44.3 0.1 90.2 0.2 135.1 4.1 46.4 4 84.7 13.5 120.7 30 17.5 8 35 17.5 53.7 29.1 3.1 1.9 6.8 4 10.8 6.2 10.9 6 24.3 13.4 30.6 21.3z"/>
			</g>
			<g id="&lt;Group&gt;">
				<path id="&lt;Path&gt;" class="s0" d="m2000 272.9c-22.2-18.2-59.2-30.7-86.9-40q-3.7-1.2-7.2-2.4c-45.1-15.4-92.8-19.4-129.4-21.2-36.4-1.7-73.4-1.4-109.3-1-48.1 0.4-97.8 0.9-146.4-3.8-59.4-5.7-136.2-17.7-203.8-59.9-56.9-35.6-104.2-85.6-137.2-144.6h-7.7c33.6 61.5 82.4 113.4 141.3 150.3 68.9 43 146.6 55.2 206.7 60.9 49 4.7 98.9 4.3 147.2 3.8 35.7-0.3 72.7-0.7 108.9 1.1 36.1 1.7 83.3 5.7 127.6 20.7q3.4 1.2 7.2 2.5c29.1 9.8 68.7 23.2 89 42.6z"/>
			</g>
			<g id="&lt;Group&gt;">
				<path id="&lt;Path&gt;" class="s0" d="m2000 222.1c-7.8-0.8-17-4.3-26-7.6-5.9-2.2-11.6-4.3-16.6-5.6-2.8-0.7-7.5-1.3-12.9-2-11.3-1.5-28.3-3.7-32.1-7.8l-0.4-0.5-0.5-0.1c-35.9-7.2-75.4-10.9-124.4-11.6-29.5-0.4-59.6 0.3-88.7 1-49.7 1.1-101.1 2.3-151.5-2-107.4-9.4-249.8-49.3-320.7-185.9h-3.8c71.3 139.2 215.5 179.7 324.2 189.2 50.6 4.4 102.1 3.2 151.9 2 29-0.6 59.1-1.3 88.6-0.9 48.5 0.7 87.7 4.3 123.2 11.4 5.1 4.8 21 6.9 33.8 8.5 5.3 0.7 9.9 1.3 12.5 2 4.8 1.2 10.4 3.3 16.2 5.5 9.3 3.4 18.9 7 27.2 7.7z"/>
			</g>
			<g id="&lt;Group&gt;">
				<path id="&lt;Path&gt;" class="s0" d="m2000 182.6c-6.3-3.2-19.2-3.8-34.1-4.2-4.3-0.2-8-0.3-10.2-0.5-19.5-2.1-38.8-3.8-57.3-5.2-41-3-78.9-4.3-115.7-4-22.5 0.2-45.4 1-67.5 1.8-52.2 1.7-106.2 3.5-158.8-1.8-99.4-10.1-229.8-47.6-289.9-168.7h-3.8c60.5 123.6 192.7 161.8 293.4 172 52.8 5.4 106.9 3.6 159.2 1.8 22.1-0.7 45-1.5 67.4-1.7 36.8-0.4 74.5 0.9 115.4 4 18.5 1.3 37.8 3.1 57.3 5.1 2.3 0.3 6.1 0.4 10.4 0.5 11.2 0.3 29.8 0.9 34.2 4.9z"/>
			</g>
			<g id="&lt;Group&gt;">
				<path id="&lt;Path&gt;" class="s0" d="m2000 135.4c-35.4 0-71.6 1.9-106.7 3.8-27.6 1.5-56.2 3.1-84.1 3.6-20.3 0.5-40.8 1.3-60.7 2-50 2-101.7 4-152.4 0.3-93.6-6.8-215.7-37.6-269-145.1h-3.8c53.7 110.2 177.6 141.6 272.6 148.5 20.8 1.5 41.7 2 62.6 2 30.3 0 60.5-1.2 90.1-2.3 19.9-0.8 40.4-1.6 60.6-2 28-0.6 56.7-2.1 84.3-3.6 35-1.9 71.2-3.8 106.5-3.9z"/>
			</g>
			<g id="&lt;Group&gt;">
				<path id="&lt;Path&gt;" class="s0" d="m2000 101.1c-12.7 0.5-26 3.6-38.9 6.6-9.3 2.3-19 4.6-28.1 5.7-27.5 3.5-56.5 6.4-86.2 8.6-65.7 4.9-129.6 6.2-189.9 3.8-102-4.1-225.4-22.1-278.2-125.8h-3.8c53.2 106.6 178.5 125 281.9 129.1 19.7 0.8 39.9 1.2 60.4 1.2 42.1 0 85.6-1.6 129.9-4.9 29.7-2.2 58.8-5.1 86.4-8.7 9.2-1.1 19-3.4 28.4-5.7 12.7-3 25.8-6.1 38.1-6.5z"/>
			</g>
			<g id="&lt;Group&gt;">
				<path id="&lt;Path&gt;" class="s0" d="m2000 65.3c-10.6 1.3-22.3 5.8-33.7 10.1-7.4 2.8-14.3 5.4-20.7 7.1-27.1 7.3-55.3 12.3-86.2 15.5-60.1 6.2-120.2 7.8-178.3 4.8-94.9-5-197.5-21.2-242.8-102.8h-7.7c46 87.3 152.1 104.4 250.1 109.5q28.8 1.5 58.1 1.5c40 0 80.6-2.1 121.3-6.3 31.3-3.2 59.8-8.3 87.3-15.7 6.6-1.8 13.7-4.5 21.2-7.3 10.8-4.1 21.8-8.2 31.4-9.6z"/>
			</g>
			<g id="&lt;Group&gt;">
				<path id="&lt;Path&gt;" class="s0" d="m2000 20.7c-25.3 23.2-75.4 35-108.9 42.9l-2.8 0.6c-45.1 10.7-93.8 14.9-144.5 12.7-78.9-3.6-166.2-15.6-219.2-76.9h-4.4c53.6 64.2 142.9 76.6 223.4 80.2q13.4 0.6 26.6 0.6c41.5 0 81.4-4.4 118.9-13.3l2.8-0.7c32.9-7.7 81.6-19.2 108.1-41.6z"/>
			</g>
			<g id="&lt;Group&gt;">
				<path id="&lt;Path&gt;" class="s0" d="m1964.7 0c-4.5 2.8-9.3 6.3-14 9.7-5.5 4.1-10.8 8-15 10.1-13.9 7.1-28.8 13.3-44.2 18.2-32.8 10.6-68 16.2-104.9 16.6q-2.5 0-5.1 0c-72.3 0-131.5-17.9-180.6-54.6h-5.5c50.3 39 111.3 58 186.1 58q2.6 0 5.1 0c37.2-0.5 72.8-6.1 105.9-16.8 15.6-5 30.6-11.2 44.8-18.4 4.4-2.2 9.8-6.2 15.4-10.4 6.2-4.5 12.9-9.4 18.8-12.4z"/>
			</g>
			<g id="&lt;Group&gt;">
				<path id="&lt;Path&gt;" class="s0" d="m1889.8 0c-59.5 27.5-132 27.5-187.9 0h-7.4c29.8 16 64.6 24 100 24 35.4 0 71.3-8 103.1-24z"/>
			</g>
			<g id="&lt;Group&gt;">
				<path id="&lt;Path&gt;" class="s0" d="m1885.4 436.8c-47.9-38.8-97.5-79-158.8-97-59.9-17.7-126.1-19.7-190.1-21.6q-10.8-0.3-21.3-0.7-15.2-0.5-30.3-0.9c-28.1-0.9-57.2-1.7-85.7-3.3-12.6-0.7-26.4-3-39.7-5.1-19.5-3.1-39.7-6.4-57.7-5.3-35.6 2.1-83.9-23.8-107-36.3-29.9-16.1-57.3-35.4-87.4-57.1-59.9-43-119.8-82.9-194.7-98.8-39.2-8.3-83.7-14.2-115.1 21.4-18.2 20.8-28.5 47-38.4 72.4q-2.3 5.9-4.6 11.7c-34 85.2-48.4 170.6-58.8 250.2-10.6 81.8-38 157.7-88.6 246.2-52.2 91.2-97.8 171.4-139.7 245.3-79.4 140.3-260.9 135.7-406.7 132.1-21.3-0.5-41.5-1-60.8-1.1v3.4c19.3 0 39.4 0.5 60.7 1.1 24 0.6 49 1.2 74.3 1.2 129.5 0 268.2-16.3 335.5-135.1 41.8-73.8 87.5-154 139.6-245.2 50.9-88.9 78.4-165.2 89.1-247.4 10.4-79.4 24.6-164.6 58.5-249.4q2.3-5.8 4.6-11.7c9.8-25.2 20-51.2 37.9-71.5 30.1-34.2 71.7-28.8 111.8-20.3 74.3 15.7 133.9 55.4 193.4 98.3 30.2 21.7 57.7 41.1 87.8 57.2 22.5 12.2 68.4 36.9 104.5 36.9q2.2 0 4.3-0.1c17.7-1.1 37.6 2.1 56.9 5.2 13.4 2.2 27.3 4.4 40.1 5.1 28.6 1.6 57.6 2.5 85.8 3.4q15.1 0.4 30.3 0.9 10.5 0.3 21.3 0.7c63.8 1.9 129.8 3.9 189.3 21.4 60.6 17.9 109.9 57.8 157.6 96.4 36.4 29.5 74.1 59.9 116.7 80.7v-3.8c-41.7-20.6-78.7-50.5-114.6-79.5z"/>
			</g>
			<g id="&lt;Group&gt;">
				<path id="&lt;Path&gt;" class="s0" d="m713.7 183c-0.5-19-7.7-34.6-21.5-46.2-39.6-33.7-124.9-27.8-172.2-21.3-55.9 7.7-110.5 24.5-163.3 40.7-28.2 8.7-57.4 17.7-86.4 25.1l-0.3 0.2c-28.7 14-75.9 11.4-110.5 9.6-4.9-0.3-9.6-0.6-14-0.8-28.7-1.2-57.9-4.1-86.1-6.9-19.4-1.9-39.5-3.8-59.4-5.3v3.4c19.8 1.4 39.7 3.4 59.1 5.3 28.2 2.8 57.4 5.6 86.3 6.9 4.4 0.2 9 0.4 13.9 0.7 34.9 1.9 82.6 4.5 112-9.8 29.1-7.5 58.2-16.5 86.4-25.1 52.7-16.2 107.1-33 162.7-40.6 46.8-6.5 131-12.4 169.7 20.4 13 11.1 19.8 25.9 20.2 44v0.3c5.2 22 0 45.9-4.9 69-2.5 11.7-5.1 23.9-6.2 35.3-10.1 34.3-13.9 71.8-17.6 108-1.1 10.3-2.1 21-3.3 31.3-12.1 103.2-35.9 182.8-77 258.1-26.5 48.5-55.8 96.6-84 143.1-18.3 30-37.2 61-55.1 91.8-91.6 157.4-259.8 155.2-422.4 153-13.1-0.2-26.6-0.3-39.8-0.4v3.3c13.2 0.1 26.7 0.3 39.7 0.5 18.7 0.2 37.6 0.4 56.5 0.4 62.3 0 124.7-2.7 181.9-17.3 84.4-21.5 145.5-66.6 187-137.8 17.9-30.8 36.8-61.8 55-91.8 28.3-46.5 57.6-94.6 84.2-143.2 41.3-75.7 65.1-155.7 77.3-259.3 1.2-10.3 2.3-21 3.4-31.4 3.6-36.1 7.4-73.5 17.4-107.5l0.1-0.3c1.1-11.3 3.5-22.9 6.2-35.1 5-23.4 10.2-47.6 5-70.3z"/>
			</g>
			<g id="&lt;Group&gt;">
				<path id="&lt;Path&gt;" class="s0" d="m663.3 172.4c-27.2-33.2-77.7-44.5-154.3-34.5-50.7 6.6-100.2 21.3-148.2 35.6-25.5 7.6-52 15.4-78.2 22-49.5 6.9-91 12.1-136.2 10.4-34.3-1.2-69-4.5-102.6-7.6-14.4-1.4-29.2-2.8-43.8-4v3.4c14.5 1.2 29.2 2.6 43.4 3.9 33.7 3.2 68.5 6.5 102.8 7.7 45.6 1.6 87.2-3.6 136.9-10.5l0.2-0.1c26.4-6.5 52.9-14.4 78.5-22 47.8-14.2 97.2-28.9 147.6-35.5 75.4-9.8 124.9 1.1 151.3 33.3 20.9 25.4 19 58.8 17.1 91q-0.3 4.8-0.6 9.5c-2.3 45.7-8.3 91.8-14.1 136.4l-0.6 4.7c-10.9 83-25.2 171.1-69.9 255.4-38.8 73.1-83.9 147.8-142 235-51.4 77.1-108.9 120.6-186.3 140.7-68.5 17.9-140.4 16.1-209.9 14.4-17.8-0.4-36.3-0.9-54.4-1v3.4c18.1 0.1 36.5 0.5 54.3 1 20.8 0.5 41.7 1 62.7 1 49.7 0 99.7-2.9 148.1-15.5 78.4-20.4 136.4-64.2 188.3-142.2 58.2-87.2 103.3-162 142.2-235.2 44.9-84.8 59.3-173.3 70.2-256.6l0.6-4.7c5.8-44.6 11.9-90.8 14.2-136.7q0.3-4.6 0.5-9.4c1.9-31.4 3.9-66.9-17.8-93.3z"/>
			</g>
			<g id="&lt;Group&gt;">
				<path id="&lt;Path&gt;" class="s0" d="m1887 463c-8.2-7.1-15.9-13.8-23.3-19.9-46.8-38.5-89.8-71.7-142.2-88-84.7-26.5-175.2-27.5-262.6-28.5-62.2-0.8-126.4-1.5-187.9-11.4-5.5-5.4-18.9-8.2-37-11.5-8.3-1.5-16.2-3-20.2-4.6-14.7-5.9-29.9-13.4-46.3-23.1-21.6-12.6-42.6-27.2-62.9-41.2-8.2-5.7-16.7-11.6-25.1-17.3-53.8-36.3-120.2-72.2-204.5-62.7-82.4 9.3-123.9 125.5-134.7 160.9-13.5 44.7-20.6 91.3-27.4 136.4-4.8 32.1-9.8 65.2-17.1 97.2-16.5 72.5-56.6 138-95.4 201.3q-7.7 12.5-15.2 25c-17.6 29.1-32.8 60.3-47.5 90.6-19.3 39.8-39.3 81-64.8 117.3-51.5 72.9-138.7 100.6-202.8 111-50.1 8.1-98.3 11.6-147.3 10.5-17.9-0.3-36-1-53.6-1.7q-7.9-0.3-15.8-0.6c-6.4-0.3-13.1-0.1-20.2 0.1-11.3 0.3-22.9 0.7-33.2-0.9v6.8c10.6 1.5 22.1 1.2 33.4 0.9 7-0.2 13.6-0.4 19.8-0.2q7.8 0.3 15.7 0.6c17.6 0.7 35.9 1.4 53.8 1.8q8.5 0.1 16.9 0.1c43.6 0 86.8-3.5 131.5-10.7 65.4-10.6 154.5-39 207.3-113.8 25.8-36.8 45.9-78.2 65.4-118.3 14.6-30.1 29.7-61.2 47.1-90q7.5-12.5 15.2-25c39.1-63.8 79.5-129.8 96.3-203.3 7.3-32.2 12.3-65.5 17.2-97.7 6.7-44.8 13.8-91.3 27.2-135.4 10.4-34.4 50.6-147.4 128.9-156.2 82.2-9.2 147.2 26 200 61.6 8.4 5.7 16.9 11.5 25.1 17.2 20.4 14.2 41.5 28.8 63.3 41.6 16.7 9.7 32.2 17.4 47.2 23.5 4.6 1.8 12.5 3.3 21.5 4.9 12.8 2.4 30.3 5.6 33.9 10.1l0.8 1 1.3 0.2c62.3 10.2 127.2 11 190 11.7 87 1 176.9 2 260.7 28.2 51.3 16 93.7 48.8 139.9 86.8 7.3 6.1 15 12.7 23.2 19.8 35.3 30.7 75.3 65.4 117.4 75.6v-6.9c-40-10.4-78.7-44-113-73.8z"/>
			</g>
			<g id="&lt;Group&gt;">
				<path id="&lt;Path&gt;" class="s0" d="m631.2 207.7c-25.1-35.2-74.8-48.5-147.8-39.5-40.3 4.9-79.9 16-118.2 26.8-35.8 10.1-72.8 20.5-110.3 25.8-60.5 10.5-122.4 5.4-182.4 0.5-23.8-1.9-48.3-3.9-72.5-4.9v3.4c24.1 1 48.5 3 72.3 4.9 60.1 4.9 122.3 9.9 183.1-0.6 37.7-5.3 74.8-15.8 110.7-25.9 38.2-10.7 77.6-21.8 117.7-26.7 71.7-8.7 120.3 4.1 144.6 38.1 20 28 20.1 67.4 18.7 102.1-2.1 52.1-5.1 95-9.5 135-18.5 170.7-109.4 312.4-200.9 442.9-23.3 33.3-43.3 60.5-71.2 83.5-32.6 27-67.9 40.5-105.3 54.7q-8.5 1.5-17 3.1c-36.7 6.6-71.4 12.8-108.8 14.1-33.2 1.2-66.9 0.6-99.6 0-11.4-0.2-23.1-0.4-34.8-0.5v3.4c11.6 0.1 23.4 0.3 34.8 0.5 18.9 0.3 38.2 0.7 57.5 0.7 14.1 0 28.2-0.2 42.2-0.7 37.7-1.3 72.5-7.6 109.3-14.2q8.5-1.6 17.1-3.1l0.4-0.1c37.6-14.4 73.2-27.9 106.4-55.3 28.2-23.2 48.4-50.7 71.8-84.1 91.7-130.9 182.9-273.1 201.5-444.6 4.3-40 7.3-83 9.5-135.2 1.4-35.3 1.2-75.3-19.3-104.1z"/>
			</g>
			<g id="&lt;Group&gt;">
				<path id="&lt;Path&gt;" class="s0" d="m628.5 288.1c-0.4-28.7-10.1-51.9-28.8-69-25.4-23.4-68.4-34.8-117.9-31.3-42.3 3-83.7 13.9-123.8 24.5-35 9.2-71.2 18.7-107.7 22.9-71.9 8.1-145.5 2.2-216.6-3.6-11.1-0.9-22.4-1.8-33.7-2.6v6.7c11.1 0.9 22.3 1.8 33.2 2.6 71.4 5.8 145.3 11.8 217.9 3.6 36.9-4.2 73.4-13.8 108.6-23.1 39.8-10.5 80.9-21.3 122.6-24.3 47.7-3.3 88.8 7.4 112.9 29.5 17.3 15.9 26.2 37.5 26.5 64.3l0.1 0.3c9.1 82.5-2.1 165.7-15.6 243.4-13.7 79.3-54.4 153.1-92.4 214.8-35.5 57.5-74 118.3-121 172.5-46.5 53.6-103.6 87.4-169.7 100.5-54.9 10.8-111.3 10.7-165.8 10.5-18.8-0.1-38.1-0.1-57.3 0.2v6.8c19.2-0.4 38.5-0.3 57.3-0.3 54.8 0.2 111.6 0.4 167.1-10.6 67.6-13.4 126-47.9 173.5-102.7 47.3-54.6 87.6-118.1 121.6-173.4 38.3-62.2 79.4-136.7 93.4-217.2 13.5-78.1 24.8-161.8 15.6-245z"/>
			</g>
			<g id="&lt;Group&gt;">
				<path id="&lt;Path&gt;" class="s0" d="m1865.3 472.9c-8.1-6.9-15.7-13.6-23.4-20-45.1-37.8-100.5-78.2-169.2-92-81.9-16.4-166.3-17.1-247.8-17.8l-10.7-0.1c-8.2-0.1-16.6-0.1-25.1-0.1-67.4-0.2-137.1-0.3-197.3-25.6-29.7-12.5-60.1-32.4-92.3-53.5-41.4-27.1-84.3-55.1-128.1-68.3-49.8-14.9-93.7-7.9-134.1 21.5-78.9 57.4-92.1 150.9-104.9 241.2-6.2 43.6-12.5 88.6-26.3 128.1-20.5 58.5-53.5 112.2-85.5 164.1-11.9 19.2-24.2 39.2-35.6 59.1-14.9 25.9-27 54.5-38.7 82.3-18.4 43.6-37.5 88.7-68 124.4-50.6 59.2-133.4 81-207.7 94.6-64.3 11.8-129.5 9.1-192.6 6.6-25.5-1.1-51.9-2.1-78-2.2v3.3c26.1 0.2 52.4 1.2 77.9 2.2 26.9 1.1 54.1 2.2 81.6 2.2 37.1 0 74.5-2 111.7-8.8 74.9-13.7 158.4-35.7 209.7-95.7 30.8-36.1 50-81.5 68.5-125.3 11.6-27.6 23.7-56.2 38.5-81.9 11.4-19.9 23.7-39.8 35.6-59.1 32-52 65.2-105.8 85.8-164.7 13.9-39.8 20.3-85 26.4-128.7 12.7-89.7 25.9-182.4 103.6-238.9 88.4-64.4 174.8-7.9 258.3 46.8 32.4 21.2 62.9 41.2 92.9 53.8 60.8 25.5 130.8 25.7 198.5 25.9q12.8 0 25.2 0.1l10.7 0.1c81.4 0.7 165.5 1.4 247.1 17.7 68 13.6 123 53.8 167.7 91.3 7.7 6.4 15.3 13 23.4 20 39.9 34.6 85.1 73.8 136.9 87.3v-3.5c-50.7-13.5-93.4-50.5-134.7-86.4z"/>
			</g>
			<g id="&lt;Group&gt;">
				<path id="&lt;Path&gt;" class="s0" d="m595.7 296.6c-20.6-79.5-102.6-81.9-149.7-76.3-33.1 4-66.2 11-98.2 17.8-39.4 8.4-80.3 17.1-121.3 20.1-56.9 4-114.7 0-170.5-3.9-18.4-1.2-37.3-2.5-56-3.5v3.3c18.6 1 37.5 2.3 55.7 3.6 56 3.9 113.9 7.9 171 3.8 41.3-2.9 82.3-11.6 121.8-20.1 31.9-6.8 64.9-13.8 97.9-17.7 46-5.5 126.1-3.3 146 73.7 15.5 60 14.1 135.2-4.4 229.9-22.9 117.6-89.3 240.1-197.2 364.1-50.9 58.5-103.3 91.9-175.2 111.7-66.2 18.3-142.5 17.3-215.6 13.3v3.4c25.1 1.4 50.6 2.4 75.9 2.4 48.7 0 96.8-3.8 140.6-15.8 72.6-20 125.5-53.8 176.9-112.8 108.2-124.4 174.8-247.4 197.9-365.7 18.6-95.1 20-170.8 4.4-231.3z"/>
			</g>
			<g id="&lt;Group&gt;">
				<path id="&lt;Path&gt;" class="s0" d="m1838 486c-35.1-30.5-71.5-62.1-113.4-83.6-53.7-27.4-119.9-35-177.5-38.8-47.9-3.2-96.7-2.1-143.8-1-30.3 0.7-61.5 1.4-92.3 1q-4.7-0.1-9.6-0.2c-39.3-0.4-80-0.9-116-12.6-31.7-10.4-60.6-28.6-85.3-45q-5.6-3.7-11.3-7.5c-53.1-35.6-108.1-72.3-175.2-65.4l-0.4 0.1c-6.6 2.3-13.2 3.9-19.5 5.5-11.8 2.9-22.9 5.7-34.5 12.6-14.2 8.6-27.3 19.8-39 33.4-21.1 24.6-37.4 56.3-47 91.9-9.2 34.5-14.7 69.9-20.1 104.1-6.7 43.4-13.7 88.2-28.4 131.2-16.6 48.4-46 93-74.5 136.2-19 28.8-38.7 58.5-54.2 89-12.4 24.4-21.9 51.6-31 77.9-16.3 47.1-33.2 95.8-68 131.3-52.4 53.6-149.1 70.3-219.7 82.5l-7.2 1.3c-63.6 11-128.1 8.3-190.5 5.8-26-1.1-52.9-2.2-79.6-2.4v3.4c26.6 0.1 53.5 1.3 79.5 2.3 27.4 1.2 55.3 2.3 83.3 2.3 35.9 0 72-1.9 107.9-8.1l7.1-1.2c71.1-12.4 168.4-29.2 221.6-83.5 35.3-36.1 52.3-85.2 68.8-132.6 9.1-26.2 18.5-53.3 30.8-77.5 15.5-30.3 35-59.9 54-88.6 28.6-43.4 58.2-88.2 74.9-137 14.8-43.3 21.8-88.3 28.6-131.8 5.3-34.1 10.8-69.4 20-103.7 9.5-35.1 25.4-66.4 46.2-90.6 11.5-13.3 24.4-24.3 38.2-32.7 11.2-6.7 22.1-9.4 33.6-12.2 6.3-1.6 12.9-3.2 19.6-5.6 65.8-6.7 120.2 29.7 172.9 64.9q5.7 3.8 11.3 7.5c24.8 16.5 53.9 34.9 86 45.4 36.6 11.8 79.4 12.4 117.1 12.8q4.8 0.1 9.6 0.1c30.8 0.5 62.1-0.3 92.4-0.9 47-1.1 95.7-2.2 143.5 1 57.3 3.7 123 11.3 176.1 38.4 41.6 21.3 77.8 52.7 112.8 83.1 48.6 42.2 98.9 85.8 164.2 102.6v-3.5c-64.2-16.8-113.9-59.9-162-101.6z"/>
			</g>
			<g id="&lt;Group&gt;">
				<path id="&lt;Path&gt;" class="s0" d="m578.3 334.5c-3.6-33.1-18.7-58.2-45-74.5-22.7-14.1-52.7-20.8-86.8-19.3-38.1 1.7-76.2 8.7-113.1 15.5-35.8 6.6-72.9 13.5-109.9 15.4-76.3 3.9-152.1-1-223.5-6.6v3.4c71.4 5.5 147.3 10.5 223.6 6.5 37.3-1.9 74.5-8.7 110.4-15.4 36.8-6.7 74.7-13.7 112.6-15.4 73.9-3.2 121.9 30.7 128.4 90.8v0.2c6.8 31.5 9 66.8 6.9 107.8-0.3 5.6-0.5 11.8-0.6 18.4-0.5 22.6-1.1 50.8-9.3 68.7l-0.1 0.3c-33.7 136.8-105.1 265.5-200.9 362.2-55.6 56.2-110 88.5-166.3 98.8-71.2 13-142.7 14.5-204.7 14.7v3.4c62.1-0.2 133.8-1.8 205.3-14.8 57-10.4 112-43 168.1-99.7 96.2-97.1 167.9-226.3 201.7-363.7 8.4-18.4 9-46.9 9.5-69.9 0.2-6.5 0.3-12.7 0.6-18.2 2.2-41.3 0-76.8-6.9-108.6z"/>
			</g>
			<g id="&lt;Group&gt;">
				<path id="&lt;Path&gt;" class="s0" d="m532.3 299.6c-20.7-24.1-51.4-36.6-91.3-37.2-39.8-0.5-80.3 5.6-119.4 11.5-31.2 4.7-63.4 9.6-95.1 11.1-78.7 3.6-158.3 0.1-226.5-3.9v3.4c68.2 4 147.9 7.5 226.6 3.8 31.9-1.5 64.2-6.3 95.5-11.1 39-5.9 79.3-12 118.9-11.4 38.8 0.5 68.7 12.6 88.7 36 48.6 56.8 32.4 170.8 21.7 246.2q-0.9 6.5-1.7 12.6c-35.7 125-106.9 243-200.6 332.4-98.1 93.6-226 101.7-349.1 101v3.3q6.4 0.1 12.9 0.1c119.8 0 243-10.8 338.6-102 47.3-45.1 88.7-96.9 123-153.9 34.2-56.7 60.5-117.3 78.4-180l0.1-0.3q0.9-6.2 1.8-12.7c10.8-76.1 27.1-191-22.5-248.8z"/>
			</g>
			<g id="&lt;Group&gt;">
				<path id="&lt;Path&gt;" class="s0" d="m1837.2 514.9q-3.7-3.3-7.3-6.5-4.4-3.9-8.8-7.9c-46.4-41.7-94.4-84.7-155.3-102.6-88.7-25.9-181.6-24.2-285.2-19.7-14.1 0.6-28.8 1.6-43 2.6-70 4.7-142.4 9.6-203.9-22.4-19.7-10.3-38.8-23.2-57.3-35.7-34.4-23.3-69.9-47.4-111.6-56.2-64-13.5-125.5 19.3-156.9 83.7-23.3 47.8-29.6 101.8-35.6 153.9-1.1 9.7-2.3 19.7-3.5 29.5-9.6 74.3-47.4 137.3-92.2 206.1-37.9 58.3-76.3 123.7-100 206.4-2 6.8-3.8 13.8-5.6 20.5-7.6 29.4-14.8 57.1-35.2 80.5-16.9 19.4-40.3 35.1-71.4 48-56.1 23.4-128.1 41.3-202.6 50.6-61.2 7.5-123 5.5-182.8 3.6-25.9-0.9-52.5-1.7-79-1.8v3.4c26.4 0.1 53 0.9 78.9 1.7 27.2 0.9 54.9 1.8 82.8 1.8 33.4 0 67-1.3 100.5-5.4 74.8-9.3 147.1-27.3 203.5-50.8 31.6-13.1 55.4-29.1 72.6-48.9 21-24 28.3-52.1 36-81.8 1.7-6.7 3.5-13.7 5.5-20.5 23.6-82.2 61.8-147.4 99.6-205.5 45-69.1 83.1-132.5 92.7-207.5 1.2-9.8 2.4-19.8 3.5-29.5 6.1-51.9 12.3-105.5 35.3-152.8 30.7-62.9 90.8-95.1 153.2-81.9 41 8.7 76.3 32.6 110.5 55.7 18.5 12.5 37.7 25.5 57.6 35.9 62.3 32.5 135.1 27.5 205.6 22.8 14.8-1 28.9-2 42.9-2.6 103.3-4.5 196-6.2 284.1 19.6 60.2 17.6 107.9 60.4 154 101.8q4.5 4 8.9 7.9 3.5 3.2 7.2 6.5c45.9 41.3 102.9 92.4 165.1 95.9v-3.4c-61-3.5-117.4-54.1-162.8-95z"/>
			</g>
			<g id="&lt;Group&gt;">
				<path id="&lt;Path&gt;" class="s0" d="m535.2 385.6c-13.1-51.6-42.7-82.6-88.2-92.1-21.7-9.8-55.8-4.9-83.2-1.1-7 1-13.6 1.9-19.4 2.5-38.5 4-77.9 6.9-117 8.5-68.9 2.9-138.9 0.6-206.6-1.6q-10.4-0.3-20.8-0.6v3.3q10.4 0.4 20.7 0.7c67.8 2.2 137.8 4.5 206.9 1.6 39.1-1.7 78.6-4.5 117.2-8.5 5.8-0.6 12.4-1.5 19.4-2.5 27.1-3.9 60.8-8.6 81.6 0.9l0.4 0.1c75.6 15.6 105.5 91.3 88.8 224.8-14.2 113.2-76.1 230.8-174.5 331.2-53.8 54.9-108.1 90.1-161.5 104.7-64.7 17.6-129 19.8-197 22.1h-2v3.4l2.1-0.1c68.3-2.3 132.7-4.4 197.8-22.2 54-14.7 108.8-50.2 163-105.5 98.9-101 161.2-219.3 175.4-333.1 6.9-55 5.9-100.9-3.1-136.5z"/>
			</g>
			<g id="&lt;Group&gt;">
				<path id="&lt;Path&gt;" class="s0" d="m1837.4 560.3c-11.7-11.3-23.2-23.4-34.3-35.1-30.1-31.6-61.2-64.4-100.4-85.7-125.8-68.3-293.1-48.4-427.6-32.3l-4.3 0.5c-45.7 5.5-89.9 9.3-129-3.9-28.3-9.6-53.6-27-78.1-43.8l-3.3-2.3c-26.3-18-57.6-37.7-89.7-46.8-37.3-10.5-69.2-5.3-97.5 15.8-56.9 42.6-64 117.6-70.2 183.7-1.1 11.6-2.2 22.5-3.4 33.2-8.3 69.4-40.5 126.9-86.3 191.9-47.5 67.4-80.3 123.5-97.3 194.7-3.3 14.1-4.9 29.5-6.5 45.9-3.1 31.4-6.2 63.9-23.3 86.8-16.6 22.2-41.7 38.2-76.9 48.8-65.1 19.7-142.5 36.1-229.9 48.8-74.4 10.8-150.9 8.8-224.9 6.8-17.9-0.5-36.3-0.9-54.5-1.2v6.7c18.1 0.3 36.5 0.8 54.3 1.2 29.2 0.8 58.8 1.6 88.5 1.6 45.9 0 92-1.9 137.5-8.5 87.8-12.7 165.5-29.2 231-49 36.5-11 62.8-27.8 80.3-51.2 18.2-24.4 21.5-57.8 24.6-90.2 1.6-16.1 3.1-31.3 6.4-44.9 16.7-70.2 49.2-125.7 96.2-192.5 46.4-65.8 79-124.1 87.4-194.9 1.3-10.7 2.4-21.7 3.5-33.3 6.1-64.8 13-138.1 67.6-179 56.2-42.1 119.4-9.9 179.3 31.2l3.3 2.2c24.8 17.1 50.6 34.8 79.8 44.6 40.3 13.7 85.4 9.8 131.9 4.3l4.3-0.5c133.5-16 299.6-35.8 423.5 31.5 38.4 20.8 69.1 53.2 98.8 84.5 11.2 11.7 22.8 23.9 34.5 35.2 25.1 24.2 91.1 79.7 167.3 80.3v-6.7c-73.8-0.6-138.1-54.8-162.6-78.4z"/>
			</g>
			<g id="&lt;Group&gt;">
				<path id="&lt;Path&gt;" class="s0" d="m493.7 356.3c-20.9-27.9-51.8-43.7-92-47.1-40.7-3.4-82.6-0.1-123.2 3.1-23.6 1.9-48.1 3.8-71.8 4.4-70.5 1.6-140.7 0.4-206.7-1.1v6.7c66 1.5 136.2 2.7 206.9 1.1 23.9-0.5 48.4-2.5 72.1-4.4 40.3-3.1 82-6.5 122.1-3.1 38.2 3.2 67.5 18.2 87.2 44.4 43.5 58.3 30.8 160.2 19.4 216l-3.8 10.7c-17.1 49.1-33.3 95.4-63.1 140.9-32 48.9-71.8 95-118.4 137.2-96.9 87.6-216.9 100.5-322.4 100.9v6.7c106.7-0.3 228.3-13.4 326.9-102.6 47-42.6 87.3-89.2 119.6-138.5 30.2-46.2 46.5-92.9 63.8-142.3l3.8-11 0.1-0.5c11.7-56.7 24.7-161-20.5-221.5z"/>
			</g>
			<g id="&lt;Group&gt;">
				<path id="&lt;Path&gt;" class="s0" d="m495.5 448.1c-8.9-48.4-31.6-81.7-67.6-98.9-45.9-21.9-105.3-18.2-157.6-14.9-15.5 1-30.1 1.9-44.1 2.2q-48.4 1.1-96.8 2.1-64.7 1.3-129.4 2.7v3.4q64.7-1.4 129.4-2.8 48.5-1 96.9-2c14-0.3 28.7-1.2 44.2-2.2 51.9-3.3 110.8-7 155.9 14.5 86.8 41.5 72.4 167.8 62.2 220.2-17.8 91-78.1 188.5-165.7 267.5-47.4 42.8-98 72.9-150.3 89.4-46.2 14.5-92.2 17.9-141 21.4-10.4 0.8-21 1.5-31.6 2.4v3.4c10.7-0.9 21.4-1.7 31.8-2.4 46.8-3.4 95.3-6.9 141.8-21.6 52.8-16.7 103.8-47 151.6-90.1 40.7-36.7 76.9-78.9 104.7-122 31.6-48.9 52.5-98.5 62-147.4 6.3-32 11.9-79.6 3.6-124.9z"/>
			</g>
			<g id="&lt;Group&gt;">
				<path id="&lt;Path&gt;" class="s0" d="m1927.6 653.6c-13.5-2.7-27.5-5.5-41.4-7.6-5.9-4.6-13-8.3-20-11.9-6.5-3.3-13.3-6.8-19-11.1-10.9-8-19.3-19.4-27.5-30.4-2.3-3-4.6-6.2-6.9-9.2l-2.2-2.8c-41.7-53.6-84.7-108.9-148-136.2-78.2-33.8-167.6-34.9-236.8-32.1-41.5 1.7-86.2 6.2-136.7 13.6-10.2 1.5-20.6 3.2-30.7 5-30.2 5.1-61.5 10.4-92.5 9.2-46.3-1.8-79.4-23.9-114.4-47.3-20.3-13.6-41.3-27.6-65.3-37.6-28.2-11.7-56.2-11.6-80.8 0.3-27.6 13.3-49.2 41.1-59.2 76.1-8.2 28.8-9.9 59.1-11.6 88.4-1.7 30.3-3.4 61.5-12.4 90.9-15.8 51.6-49.3 95.1-81.8 137.1-9.3 12.2-19.1 24.8-28.1 37.3-46.2 63.8-66.3 127-67.2 211.3q0 5.1 0 10.5c-0.1 34.9-0.1 74.5-25.9 98.2-17.5 16.1-43.4 25.8-79.3 29.5-45.1 4.7-90.2 12.9-133.8 20.8-40.5 7.3-82.4 14.9-124.1 19.7-83.5 9.5-173.2 11.7-282 6.7v3.4c37.6 1.7 73 2.6 106.6 2.6 63.6 0 121.1-3.1 175.8-9.4 41.8-4.8 83.7-12.4 124.3-19.7 43.5-7.9 88.6-16.1 133.5-20.7 36.7-3.9 63.3-13.8 81.3-30.4 26.8-24.7 26.9-66.9 26.9-100.7q0-5.4 0.1-10.5c0.8-83.5 20.7-146.2 66.5-209.3 9-12.5 18.7-25.1 28.1-37.2 32.6-42.3 66.3-86 82.3-138.2 9.1-29.8 10.9-61.3 12.6-91.7 1.6-29.1 3.4-59.2 11.5-87.7 9.7-34.1 30.6-61 57.3-73.9 23.8-11.5 50.8-11.6 78.1-0.2 23.7 9.8 44.6 23.7 64.8 37.2 35.4 23.7 68.8 46 116.1 47.9 31.4 1.2 62.8-4.1 93.2-9.3 10-1.7 20.4-3.5 30.6-5 50.3-7.4 95-11.8 136.3-13.5 68.8-2.8 157.8-1.7 235.4 31.8 62.4 27 105.2 81.9 146.6 135.1l2.2 2.9c2.4 3 4.7 6.1 6.9 9.1 8.3 11.2 16.9 22.8 28.2 31.1 5.9 4.4 12.8 8 19.5 11.4 7.2 3.8 14.1 7.3 19.7 11.8l0.4 0.3 0.4 0.1c14.1 2.1 28.1 4.9 41.8 7.6 23.5 4.8 47.9 9.6 73 10.9v-3.4c-24.8-1.3-49-6.1-72.4-10.8z"/>
			</g>
			<g id="&lt;Group&gt;">
				<path id="&lt;Path&gt;" class="s0" d="m453.1 408.9c-18.2-27.6-45.5-45-81.3-51.7-50.6-9.5-104.2-7.6-156-5.7-10.5 0.4-21.3 0.8-31.9 1.1-28.1 0.7-57.9 1.8-93.7 3.3q-23.4 1.1-46.8 2.2c-2.9 0.1-7-0.1-11.8-0.2-10.7-0.4-23.4-0.8-31.6 1.5v3.5c7.5-2.5 21.1-2 31.5-1.7 4.9 0.2 9 0.4 12 0.2q23.4-1.1 46.8-2.1c35.9-1.6 65.6-2.6 93.7-3.4 10.6-0.3 21.4-0.7 31.9-1 51.7-1.9 105.1-3.8 155.3 5.6 34.8 6.6 61.4 23.5 79.1 50.2 38.5 58.6 24.1 148.2 16.1 184-18.4 82.3-79.5 171.3-167.7 244.4-46.9 38.9-90.4 64.7-129.4 76.7-55.8 17.2-113.4 21.5-169.3 25.3v3.4c56.1-3.8 114-8.1 170.2-25.5 39.5-12.1 83.4-38.2 130.7-77.3 88.7-73.5 150.2-163.3 168.8-246.2 8-36.3 22.6-127-16.6-186.6z"/>
			</g>
			<g id="&lt;Group&gt;">
				<path id="&lt;Path&gt;" class="s0" d="m447.1 447.2c-16.4-37.4-58.7-75.2-100.9-73.4-13.2 0.6-27.7-1.2-41.8-3-10.7-1.4-21.9-2.8-32.4-3.1-29.4-0.9-59.9-0.7-93.1 0.7-60.5 2.5-121.6 8.6-178.9 14.9v3.4c57.3-6.3 118.5-12.5 179-15 33.2-1.3 63.6-1.6 92.9-0.7 10.3 0.4 21.4 1.8 32.1 3.1 14.2 1.8 28.9 3.7 42.3 3.1 40.8-1.7 81.8 34.9 97.7 71.4 15.8 36.1 17.8 82.2 6 141.1-22.1 109.9-113.8 197.2-166.5 239.4-46.1 37-88.1 61.4-128.4 74.7-50.3 16.6-103.5 21-155.1 25.1v3.4c51.8-4.2 105.4-8.6 156.2-25.3 40.6-13.4 82.9-38 129.4-75.2 53.1-42.6 145.4-130.5 167.7-241.5 11.9-59.5 9.9-106.3-6.2-143.1z"/>
			</g>
			<g id="&lt;Group&gt;">
				<path id="&lt;Path&gt;" class="s0" d="m420.5 473.5c-15.1-38.5-43.2-63.8-81.2-73.3-109.7-27.3-232.6-5.1-339.3 21v3.5c106.5-26.1 229.3-48.4 338.4-21.2 78.6 19.5 100.6 105.7 87.7 182.3-16.9 100.3-102.1 182.6-170.5 234.1-35.9 26.9-78.4 56.1-121.7 68.5-28.1 8.1-55.8 13.3-76.9 17-9.4 1.7-19.5 2.2-29.2 2.7-9.3 0.4-18.7 0.9-27.8 2.3v3.4c9-1.5 18.6-1.9 27.9-2.4 9.9-0.5 20.1-0.9 29.7-2.6 21.1-3.7 49-9 77.2-17.1 43.8-12.6 86.7-42 122.8-69.1 68.9-51.8 154.7-134.9 171.8-236.2 6.9-40.6 3.7-80.7-8.9-112.9z"/>
			</g>
			<g id="&lt;Group&gt;">
				<path id="&lt;Path&gt;" class="s0" d="m1893.7 708.8c-31.8 19.8-33 53.2-34.1 85.6v1.1c-0.8 22.2-0.6 44.7-0.4 66.4 0.2 19.5 0.4 39.6-0.1 59.4-0.3 11.3-3.2 18.8-8.8 23-9.4 6.8-25.4 3.5-39.9-0.6-59.7-17-106.3-48.9-127.9-87.4-27.1-48.3-1.9-98.2 30.8-128.7 4-3.8 8.2-7.6 12.3-11.3 33.8-30.6 65.7-59.5 49.1-111.1-18.3-56.7-60.7-107.1-116.5-138.3-61.8-34.6-136.6-39-201.7-38.8-70.2 0.3-135.3 12.6-204.4 25.7q-14.8 2.9-29.7 5.6l-5.8 1.1c-41.7 7.8-84.7 15.8-126.1 3.8-21.9-6.3-41-19.6-59.4-32.3-7.1-5-14.5-10.1-21.9-14.7-38.9-24.3-71-27.7-95.5-10-19.5 14.1-31.6 37.2-36 68.7-2.9 20.8-2.9 42.1-3 62.6-0.1 38-0.2 73.9-16.5 108.9-18.6 39.9-48.4 73.3-77.1 105.6-13.8 15.6-28.2 31.7-41.1 48.3-44.2 57-60.9 120.1-54.3 204.6 0.5 5.8 1.1 12.1 1.8 18.7 3.8 37.6 8.5 84.4-13.1 112.1-21.8 27.8-56.8 26.9-90.6 26-5.2-0.1-10.1-0.2-15-0.3q-7 0-14.1 0c-43.2-0.4-87.9-0.7-131.6 4.6-22 2.7-44.1 6.7-65.5 10.6-22.6 4.2-45.9 8.4-69.1 11.1-96.1 10.9-195.1 10.6-288.5 9.2v3.4c25.9 0.4 52.1 0.7 78.6 0.7 69.5 0 140.6-2.1 210.3-10 23.3-2.6 46.7-6.9 69.3-11.1 21.3-3.9 43.4-7.9 65.3-10.6 43.5-5.2 88.1-4.9 131.2-4.6q7.1 0.1 14.1 0.1c4.9 0 9.7 0.2 14.9 0.3 33 0.9 70.5 1.9 93.3-27.4 22.5-28.7 17.7-76.3 13.8-114.5-0.7-6.6-1.3-12.8-1.7-18.5-6.6-83.7 10-146 53.6-202.3 12.8-16.6 27.1-32.6 40.9-48.2 28.9-32.5 58.8-66.1 77.6-106.4 16.6-35.6 16.8-73.6 16.9-110.3 0-20.4 0.1-41.5 3-62.2 4.2-30.5 15.9-52.9 34.6-66.4 23.5-17 53.5-13.7 91.7 10.2 7.4 4.6 14.7 9.6 21.8 14.5 18.6 13 37.9 26.4 60.3 32.8 42.2 12.3 85.7 4.2 127.7-3.7l5.8-1.1c10-1.8 19.9-3.7 29.8-5.6 68.8-13 133.9-25.4 203.7-25.6 64.6-0.3 138.9 4.1 200.1 38.4 55 30.7 96.9 80.4 114.9 136.3 15.9 49.6-15.2 77.8-48.2 107.6-4 3.7-8.2 7.5-12.3 11.3-19.6 18.4-33.3 39.6-39.6 61.3-7.1 24.7-4.3 49.4 8.1 71.5 22 39.3 69.4 71.8 130 89 15.3 4.4 32.2 7.8 42.8 0.1 6.5-4.8 9.9-13.2 10.2-25.6 0.5-19.9 0.3-40 0.1-59.5-0.2-21.7-0.5-44.2 0.3-66.2l0.1-1.2c1.1-32.9 2.2-63.9 32.5-82.8 28.3-17.6 72-16.5 104.5-15.5v-3.4c-33-1-77.2-2.1-106.3 16z"/>
			</g>
			<g id="&lt;Group&gt;">
				<path id="&lt;Path&gt;" class="s0" d="m412.4 531.3c-4.8-41.9-24.2-74-57.7-95.7-28.1-18.1-66.3-28.3-110.4-29.5-32.4-0.9-81.8 0.3-133 11.4-46.1 10-83.5 25.9-111.3 47.1v8.6c74.1-60.2 205.1-61.5 244.1-60.4 55.4 1.5 150.1 19 161.7 119.3 11.9 103.8-70.2 194.6-141.2 252.6-30.4 24.7-70.7 55.8-113.8 76.3-46.1 21.9-97.2 28.6-146.6 35.1l-4.2 0.6v6.7l5-0.6c50-6.6 101.6-13.4 148.7-35.7 43.7-20.8 84.5-52.2 115.2-77.2 72.2-59 155.8-151.7 143.5-258.6z"/>
			</g>
			<g id="&lt;Group&gt;">
				<path id="&lt;Path&gt;" class="s0" d="m370.8 514c-12.4-33.6-40.5-57.5-81.3-69-32.2-9-72.5-10.2-110.7-3.3-45.9 8.3-78 22.4-104.1 45.9-12.5 11.2-23.9 24.8-34.8 38-12.4 14.9-25.2 30.3-39.9 42.4v4.3c15.9-12.5 29.4-28.8 42.5-44.5 10.9-13.1 22.1-26.6 34.4-37.7 25.7-23 57.3-36.9 102.5-45.1 75.7-13.7 163.3 2.7 188.3 70.2 32.9 89.1-38.3 174.7-103.9 230.7q-5.7 4.9-11.4 9.8c-34.8 29.9-70.8 60.8-111.7 83.2-43.6 23.9-95.1 32.9-140.7 39.2v3.4c46-6.3 98.1-15.4 142.3-39.6 41.2-22.6 77.3-53.6 112.3-83.6q5.7-4.9 11.3-9.8c66.5-56.8 138.6-143.5 104.9-234.5z"/>
			</g>
			<g id="&lt;Group&gt;">
				<path id="&lt;Path&gt;" class="s0" d="m1773.3 994.9c-15.9-14.1-34-27.5-51.6-40.5-32.1-23.8-65.4-48.4-85.6-78.3-22.8-33.7-26.1-69.3-10.6-112 7.6-20.9 21.9-41 37.2-62.3 28.4-39.8 57.8-81 41.2-128.7-10.8-31.2-33.5-58.5-65.6-78.9-28.2-18-63-30.1-98-34.1-84.5-15.7-178.4-9.2-279 19.4-24.2 6.8-48.7 14-72.4 21-24.5 7.2-50 14.7-75 21.8-8.6 2.4-17.4 4.4-26.7 6.5-28.6 6.4-58.2 13-79.6 33.2-19 17.9-30.6 41.5-41.9 64.4-3.6 7.5-7.5 15.3-11.5 22.7-14.6 27-34.4 53.4-59 78.3-12.5 12.8-26.1 25.3-39.3 37.3-39.1 35.7-79.4 72.6-99.2 123-19.9 50.9-13.9 104.5-8.1 156.4 4.1 37.1 8.4 75.5 3.1 112.4-2.3 5.2-4 10.1-5.7 14.9-4.3 12.4-8 23.1-21.3 32.6-12 8.4-28.5 13.4-47.8 14.3-24.8 1.2-50-5.3-74.4-11.7-14.4-3.8-29.2-7.7-43.8-9.9-86.4-13-166.6-2.9-251.5 7.9q-10.8 1.4-21.8 2.7c-69.2 8.7-139.7 8.6-207.8 8.5-25.4-0.1-51.7-0.1-77.6 0.3v3.4c25.9-0.4 52.2-0.4 77.6-0.4 68.2 0.1 138.8 0.2 208.2-8.4q11-1.4 21.8-2.8c84.7-10.7 164.7-20.8 250.7-7.9 14.3 2.2 29.1 6.1 43.4 9.8 24.6 6.5 50.1 13.2 75.4 11.9 19.9-1 37-6.2 49.5-15 14.2-10 18.1-21.2 22.6-34.2 1.6-4.8 3.3-9.7 5.7-14.8l0.1-0.5c5.4-37.4 1.1-76.1-3.1-113.5-5.7-51.5-11.7-104.7 8-154.8 19.5-49.7 59.5-86.3 98.2-121.7 13.3-12.1 27-24.6 39.5-37.4 24.8-25.2 44.8-51.8 59.6-79.1 4-7.5 7.9-15.3 11.6-22.8 11.1-22.6 22.5-46 41.1-63.4 20.7-19.6 49.9-26.1 78.1-32.4 8.9-2 18.2-4.1 26.8-6.6 25.1-7 50.5-14.5 75.1-21.8 23.7-6.9 48.2-14.1 72.3-21 100.1-28.4 193.5-34.9 277.6-19.3 58.8 6.7 136.3 39.8 160.9 110.8 16.1 46.1-12.8 86.5-40.8 125.6-15.3 21.5-29.9 41.9-37.6 63.2-35 96.1 32.4 145.9 97.4 194.1 17.5 12.9 35.6 26.3 51.3 40.3 47.8 42.7 65.3 98.8 49.3 158.2-20.3 75.1-102 108.9-165.7 115-138.9 13.4-246.8-64.4-351.1-139.7-33.9-24.5-69-49.8-104.6-71.5l-0.3-0.2-0.4-0.1c-9.5-1-19.1-4-28.4-6.9-20.3-6.2-41.2-12.7-63.3-0.1-41.2 11.1-65.3 57.4-84.7 94.6-2.4 4.7-4.8 9.2-7.1 13.5q-2.9 5.4-5.9 10.9c-19.1 35.4-38.8 72-52.8 110.7-17.2 47.4-12.9 103.4-7.3 146.9 5.4 41.5 17.3 83 28.9 123.1 15.2 53.1 31.1 108 31.6 163.3 0.7 58.7-13.5 116.3-27.2 172.1-9 36.7-18.3 74.7-23.4 112.8h3.4c5.1-37.8 14.3-75.5 23.3-112 13.7-56 27.9-113.8 27.3-172.9-0.6-55.8-16.5-110.9-31.8-164.2-11.5-40-23.4-81.4-28.8-122.7-5.5-43.1-9.8-98.6 7.1-145.3 14-38.4 32.8-73.3 52.7-110.2q3-5.5 5.9-10.9c2.3-4.3 4.7-8.9 7.1-13.6 19.1-36.6 42.9-82.2 82.8-92.9l0.4-0.2c20.9-12 40.3-6 60.8 0.4 9.3 2.8 18.9 5.8 28.7 6.9 35.3 21.6 70.2 46.8 104 71.2 96.8 69.9 196.6 141.9 321.8 141.9q15.5 0 31.6-1.5c37.2-3.6 73.7-15.6 102.8-33.7 34-21.2 56.7-50.2 65.8-83.8 16.4-60.7-1.4-118.1-50.2-161.6z"/>
			</g>
			<g id="&lt;Group&gt;">
				<path id="&lt;Path&gt;" class="s0" d="m333 512.8c-15.3-23.5-40.6-39.3-73.3-45.6-42.7-8.2-91.4 1.4-123.9 24.5-22.2 15.7-39.2 37.4-55.5 58.5-4.4 5.6-8.9 11.4-13.5 17-9.5 11.7-21.1 25.2-35.1 36.5-5.3 4.3-12.3 7.6-18.9 10.8-4.4 2-8.8 4.1-12.8 6.5v3.9c4.2-2.7 9.1-5 14.2-7.4 6.9-3.2 14-6.6 19.6-11.1 14.3-11.6 26-25.2 35.7-37.1 4.5-5.6 9-11.4 13.4-17 16.3-20.9 33-42.5 54.8-57.9 31.9-22.5 79.5-31.9 121.4-23.9 22.1 4.3 52.4 15.4 71.1 44.1 22.8 35.1 21.5 73.2-4 116.5-21.1 35.8-54.2 67.4-83.5 94.2-70.9 64.8-142.9 123.8-242.7 134.8v3.4c101-11 173.6-70.4 245-135.7 29.5-27 62.8-58.8 84.1-95 25.8-43.9 27.2-84.2 3.9-120z"/>
			</g>
			<g id="&lt;Group&gt;">
				<path id="&lt;Path&gt;" class="s0" d="m1777.4 1047.8c-22.9-33.9-56.8-57.7-89.5-80.7-13.6-9.5-27.6-19.4-40.5-29.7-26.9-21.6-44.5-41.8-55.2-63.6-14.2-28.6-12.4-54-10.3-83.5l0.4-6.2c13.5-41.1 30.4-73.6 51.6-109.7 16.6-28.3 37-69.9 23.3-105.2-12.2-31.4-37.2-55.5-74.3-71.6-27.7-12.1-61.4-19.7-103.2-23.4-80.9-7.2-164 5.3-246.9 37.2-68.8 26.4-154.3 59.3-202.1 129.4-16 17.7-30.3 37.6-44.2 56.8-12.5 17.3-25.5 35.3-39.6 51.7-15.1 17.3-31.9 33.6-48.1 49.3-9.2 8.9-18.7 18.1-27.8 27.4-56.8 58.2-79.7 118.5-76.6 201.6 1.6 42.6 7.3 86.9 17.1 131.8 7.1 32.6 9 68.5-30.9 87.3-55 26-119.7 5.2-176.8-13.2-14.3-4.6-27.8-8.9-40.9-12.5-85.5-23.3-167.6-13.3-254.5-2.6q-9.5 1.2-19.1 2.3c-63.4 7.7-127.9 8.5-190.4 9.2-32.4 0.4-65.8 0.9-98.9 2.2v3.4c33.1-1.4 66.5-1.8 99-2.2 62.5-0.8 127.2-1.6 190.7-9.2q9.6-1.2 19.1-2.4c86.5-10.6 168.3-20.6 253.2 2.6 13.1 3.5 26.5 7.9 40.8 12.5 57.7 18.5 123.1 39.5 179.2 13 42.1-19.9 40.2-57.2 32.8-91.1-9.7-44.7-15.5-88.9-17.1-131.2-3-82.1 19.6-141.7 75.7-199.1 9.1-9.3 18.6-18.5 27.8-27.4 16.2-15.8 33.1-32.1 48.2-49.5 14.3-16.5 27.3-34.5 39.9-52 13.8-19.1 28.1-38.9 44-56.6l0.2-0.2c47.1-69.2 132.1-101.9 200.5-128.2 82.4-31.6 165-44.1 245.4-37 95.2 8.4 154 39.7 174.7 92.9 13.2 33.9-6.9 74.6-23.1 102.3-18.5 31.4-37.6 66.6-51.9 110.6l-0.6 6.8c-2.1 29.9-3.9 55.8 10.7 85.2 10.9 22.3 28.8 42.8 56 64.7 13.1 10.4 27.1 20.3 40.7 29.8 32.5 22.9 66.2 46.5 88.7 79.9 18.9 27.8 25.8 60.6 19.6 92.4-6.6 33.6-27 63.4-57.4 83.8-61.5 41.2-152.7 34.2-215.9 9-75-29.8-135.5-78.5-195.9-129.9q-6.5-5.5-13.2-11.3c-55.7-47.9-118.9-102.2-194.9-95.7-71.2 6.1-102.2 62.2-132.2 116.5-6.4 11.7-13.1 23.8-20 35.1-7.5 12.1-17.1 23.8-27.2 36.3-20 24.4-40.6 49.6-45 79-5.3 35.8 5.8 78.5 15.6 116.1 1.6 6.2 3.2 12.2 4.6 18 4.6 18.1 8.5 36.5 12.3 54.4 6.4 30 13.1 61 22.5 91.3l3.7 11.7c13.5 43 27.5 87.5 33.7 132.9 10 74.1-8.5 149.8-26.4 223-7 28.9-14.3 58.7-19.6 87.7h3.4c5.3-28.7 12.5-58.3 19.5-86.9 18-73.5 36.5-149.5 26.4-224.2-6.2-45.7-20.2-90.3-33.8-133.5l-3.6-11.7c-9.5-30.2-16.1-61.1-22.5-91-3.8-17.9-7.8-36.4-12.3-54.5-1.4-5.8-3-11.8-4.6-18-9.7-37.4-20.8-79.7-15.5-114.8 4.2-28.4 24.5-53.3 44.2-77.4 10.2-12.5 19.9-24.4 27.4-36.7 7-11.3 13.7-23.5 20.1-35.2 29.6-53.5 60.2-108.8 129.6-114.8 74.6-6.3 137.2 47.5 192.4 95q6.7 5.7 13.2 11.3c60.7 51.6 121.4 100.4 196.8 130.4 31.5 12.6 69.8 20.6 108.1 20.6 39.6 0 79.2-8.6 110.9-29.9 31.3-20.9 52.2-51.4 58.9-86 6.4-32.6-0.7-66.3-20.1-94.9z"/>
			</g>
			<g id="&lt;Group&gt;">
				<path id="&lt;Compound Path&gt;" fill-rule="evenodd" class="s0" d="m1624.6 1231.8c-2.6 0-5.2-0.1-7.8-0.2-70.7-3.2-142.3-40.7-212.8-111.4q-5.1-5.1-10.1-10.2c-60.8-61.1-118.3-118.8-200.4-148.8-40.3-14.7-82.5-22.4-125.5-22.8-20.2 0.8-42.2 3.8-68.9 9.4-3.3 0.7-7.4 2.1-11.9 3.5-9.1 2.9-19.6 6.3-28.8 6.3-7.3 0-12.9-2.2-16.8-6.5l-0.3-0.4-0.2-0.4c-10.4-21.6 2.4-50.4 11.8-71.3 1.6-3.6 3.1-7 4.4-10.1 8.7-21 19.1-42.3 30.9-63.4 23.8-42.7 50-83 77.8-119.9 61.9-82.2 135-136 223.5-164.5 26.2-8.4 78.7-22.6 136.2-22.6 41.7 0 77 7.5 105.1 22.2 41.9 22 65.9 45.1 64.6 97.8v0.4l-0.1 0.4c-6.9 27.4-18.5 53.7-29.6 79.1-4.2 9.4-8.4 19.1-12.4 28.7-38.6 93.4-28.8 164.1 29.1 210.2 16 12.7 34.6 24.4 54.2 36.7 51.2 32.3 104.2 65.6 120.3 122.6 8.9 31.4 4.2 60.4-13.6 83.9-23.6 31.2-70.1 51.3-118.7 51.3zm-556.7-300.1c43.9 0.4 86.9 8.2 127.9 23.2 83.5 30.5 141.5 88.7 202.8 150.4q5.1 5.1 10.2 10.2c69.3 69.4 139.4 106.2 208.4 109.4 2.4 0.1 4.9 0.1 7.4 0.1 46.5 0 91-19 113.3-48.5 16.5-21.8 20.8-48.8 12.5-78-15.4-54.6-67.2-87.2-117.4-118.8-19.8-12.4-38.5-24.2-54.8-37.2-60.5-48.1-71-121.5-31.1-218 4-9.7 8.2-19.4 12.4-28.8 11-25.1 22.4-50.9 29.2-77.7 1.1-49-21.6-70.6-61.1-91.3-27-14.2-61.3-21.4-101.9-21.4-56.6 0-108.3 13.9-134.1 22.2-87.2 28.1-159.2 81.1-220.2 162.1-27.6 36.7-53.6 76.8-77.3 119.1-11.7 21-21.9 42.1-30.6 62.8-1.3 3.2-2.8 6.6-4.5 10.2-9.2 20.7-20.7 46.4-12.1 65.2 2.6 2.7 6.4 4 11.5 4 8.2 0 18.1-3.2 26.8-6 4.6-1.5 8.9-2.9 12.5-3.6 27.1-5.8 49.4-8.9 70.2-9.6z"/>
			</g>
			<g id="&lt;Group&gt;">
				<path id="&lt;Path&gt;" class="s0" d="m304.1 564.7c-4.4-36-25.8-49.5-42.9-54.5-35.3-10.3-86.2 6.8-111.3 37.2-7.6 9.1-14.4 18.6-21 27.7-15.1 20.8-29.3 40.5-50.9 56.3-20.6 15.1-52.4 32.5-78 35v3.3c26.4-2.4 58.9-20.1 80-35.6 22-16.1 36.4-36 51.6-57 6.6-9.1 13.4-18.5 20.9-27.6 24.3-29.5 73.7-46 107.7-36 16.2 4.7 36.3 17.5 40.5 51.6 6.5 52.7-41.3 93.6-83.4 129.7-12.1 10.3-23.5 20-32.8 29.4l-3.4 3.5c-51.4 51.8-104.5 105.3-181.1 110.7v3.4c78-5.4 131.6-59.5 183.5-111.8l3.4-3.4c9.2-9.3 20.6-19 32.6-29.3 42.7-36.6 91.2-78.1 84.6-132.6z"/>
			</g>
			<g id="&lt;Group&gt;">
				<path id="&lt;Compound Path&gt;" fill-rule="evenodd" class="s0" d="m1623.5 1204.8c-49.2 0-104.9-26.1-149.1-70-19.7-19.5-36.6-42-53-63.7-9.3-12.3-18.9-25-28.9-37-28.6-34.6-64.2-56.5-98.2-76.1-32.2-18.5-68.2-30.5-103.1-42.2-9.7-3.2-19.6-6.5-29.3-9.9-17.2-6-39.6-14.3-61.5-24.6-20.6-9.7-27.6-19.6-39.2-35.9q-1.6-2.3-3.3-4.7l-0.3-0.4v-0.5c-2.5-41.5 12.2-88.1 42.5-134.8 25-38.6 59.8-76.1 98-105.6 60.2-46.5 131.4-72.1 200.7-72.1h0.5c53.5 1.4 92.9 14.1 120.5 38.7 33.1 29.7 19.2 76.4 9 110.5-4.7 15.9-11.1 32.7-17.8 50.6-22.5 59.6-48 127.1-20.6 182.7 20.1 40.9 64.6 62.7 107.6 83.8 17.2 8.5 33.4 16.5 48 25.6 32.4 20.2 80.5 66.7 80.3 112-0.1 22.1-11.9 40.6-35.2 54.9-20.4 12.4-43.1 18.7-67.6 18.7zm-562.6-365.7q1.6 2.3 3 4.3c11.3 15.9 18.1 25.5 38 34.9 21.7 10.2 44 18.4 61.1 24.4 9.7 3.4 19.6 6.7 29.2 9.9 35.1 11.7 71.3 23.8 103.8 42.5 34.2 19.7 70.1 41.9 99.1 76.8 10 12.1 19.7 24.9 29 37.2 16.3 21.6 33.1 44 52.7 63.4 43.5 43.2 98.4 69 146.7 69 23.9 0 46-6.2 65.8-18.3 22.2-13.6 33.6-31.1 33.7-52.1 0.1-38.8-40.5-85.2-78.8-109.1-14.4-9-30.6-16.9-47.7-25.3-43.5-21.4-88.5-43.5-109.1-85.4-28.1-56.9-2.3-125.2 20.4-185.4 6.7-17.8 13.1-34.6 17.8-50.3 9.9-33.3 23.5-78.8-8.1-107-26.9-24.1-65.6-36.5-118.2-38h-0.5c-68.5 0-139.1 25.4-198.7 71.5-67.5 52.2-144.4 145.5-139.2 237z"/>
			</g>
			<g id="&lt;Group&gt;">
				<path id="&lt;Compound Path&gt;" fill-rule="evenodd" class="s0" d="m1307.9 877.3c-65.2 0-144-35.2-157.3-87.7l-0.1-0.3c-5.4-80.1 57.8-154.2 118.9-189.1 23.5-13.5 65.7-29.2 107.3-29.2 32.2 0 73.8 9.5 88.9 55 12.3 36.5-7.1 86.7-27.7 131q-2.1 4.5-4.3 9.3c-16.4 36-37 80.8-70.8 99.3-14 7.6-33 11.7-54.9 11.7zm-154-88.3c13 50.8 90.1 84.9 154 84.9 21.4 0 39.8-3.9 53.3-11.3 32.8-17.9 53.1-62.2 69.4-97.7q2.2-4.8 4.2-9.3c12.3-26.4 41.1-88.4 27.7-128.6-14.6-43.5-54.7-52.6-85.8-52.6-41 0-82.5 15.4-105.6 28.7-60.2 34.4-122.5 107.3-117.2 185.9z"/>
			</g>
			<g id="&lt;Group&gt;">
				<path id="&lt;Compound Path&gt;" fill-rule="evenodd" class="s0" d="m1285.8 795.9q0 0 0 0c-17.8 0-42.3-7.7-58.4-44.4l-0.1-0.5c-5.1-45.6 23.5-93.8 69.5-117.3 14.2-7.2 31.6-11.3 47.9-11.3 19.4 0 35.7 5.8 45.7 16.5 8.8 9.3 12.8 22.1 11.9 37.8-1.5 25.5-16.4 55.3-39.8 79.7-24.1 25.1-52 39.5-76.7 39.5zm-55.2-45.5c12.2 27.6 31.2 42.1 55.2 42.1 23.4 0 51.2-14.4 74.3-38.5 22.8-23.8 37.4-52.8 38.8-77.5 0.9-14.8-2.8-26.7-10.9-35.3-9.4-10-24.8-15.5-43.3-15.5-15.8 0-32.7 4-46.4 11-37.7 19.2-73.1 64.5-67.7 113.7z"/>
			</g>
			<g id="&lt;Group&gt;">
				<path id="&lt;Path&gt;" class="s0" d="m34.7 749.6c-5.3-10.3-22-13.4-34.7-15.5v3.4c11.4 2 27.3 5 31.7 13.6 2 3.9 1.6 8.6-1.3 14.4-5.6 11.6-18.3 18-30.4 23.4v3.6c13-5.6 27-12.4 33.5-25.5 3.3-6.8 3.7-12.6 1.2-17.4z"/>
			</g>
			<g id="&lt;Group&gt;">
				<path id="&lt;Path&gt;" class="s0" d="m2000 939.1c-50.8-14.3-74.4-68.1-71.5-114.5 2.3-36.5 22.3-77.6 71.5-85.4v-3.4c-51.5 7.9-72.5 50.6-74.9 88.6-3 48.1 21.8 103.8 74.9 118.2z"/>
			</g>
			<g id="&lt;Group&gt;">
				<path id="&lt;Path&gt;" class="s0" d="m2000 884.7c-12.7-13.6-19.8-33.2-18.8-52.8 0.8-16.8 7.4-31.3 18.8-41.4v-4.4c-13.4 10.8-21.3 26.8-22.2 45.7-1 21.7 7.4 43.4 22.2 57.7z"/>
			</g>
			<g id="&lt;Group&gt;">
				<path id="&lt;Compound Path&gt;" fill-rule="evenodd" class="s0" d="m1764.9 842.4c-8.2 0-16.8-4.5-21.3-11.3-3.6-5.5-4.3-11.9-1.8-18 0.5-13.6 8.8-18.5 16.5-18.5 6.2 0 12.8 3.1 17.7 8.2 5 5.4 7.6 12.5 7.1 20-0.7 12.3-7.5 19.6-18.2 19.6zm-6.6-44.4c-8 0-12.9 5.8-13.2 15.5v0.3l-0.1 0.3c-2.7 6.6-0.7 11.9 1.4 15.1 3.9 5.8 11.5 9.8 18.5 9.8 8.8 0 14.3-5.9 14.9-16.4 0.4-6.6-1.9-12.8-6.3-17.5-4.2-4.4-9.9-7.1-15.2-7.1z"/>
			</g>
			<g id="&lt;Group&gt;">
				<path id="&lt;Path&gt;" class="s0" d="m1011.7 1572.2c11.2 50.2 22.8 102.1 22.8 155.2 0 50.3-11.6 97.2-23.8 146.9l-0.3 1.4c-2.7 10.9-5.9 22.1-9.4 34-8.7 30.1-17.6 61.2-18.4 90.3h3.3c0.9-28.7 9.8-59.5 18.4-89.4 3.4-11.9 6.6-23.1 9.3-34.1l0.4-1.4c11.7-47.7 23.9-97 23.9-147.7 0-53.5-11.6-105.6-22.9-155.9-8.8-39.4-17.9-80.1-21.3-121.2-6.3-74.7 13-146.3 62.4-232.2 22.6-39.2 45.7-66.2 72.5-85 41-12 69.8 0.5 105.9 19.5 19.7 10.2 39.7 21.2 59.1 31.8 118.8 65 241.6 132.2 381.8 108.6 67.3-11.4 122.9-41.1 156.6-83.6 18.2-22.9 30.7-50.7 36.1-80.5 3.5-22.1 4.5-44 5.3-68.4 0.1-5.3 0-11.3-0.2-17.6-0.4-18-0.9-38.4 6-52.2 9.3-18.5 60.6-8.6 94.5-2 10.8 2.1 20.1 3.9 26.3 4.4v-3.3c-6-0.6-15.1-2.4-25.7-4.4-37-7.2-87.7-17-98.1 3.8-7.3 14.6-6.8 35.4-6.3 53.8 0.1 6.2 0.3 12.1 0.1 17.4-0.8 24.3-1.7 46.1-5.2 68-5.3 29.1-17.6 56.4-35.4 78.9-33.2 41.9-88.1 71.1-154.6 82.3-139 23.5-261.3-43.4-379.6-108.1-19.4-10.7-39.5-21.6-59.1-31.9-37-19.4-66.4-32.1-108.7-19.7l-0.3 0.1-0.2 0.2c-27.3 19-50.8 46.5-73.7 86.3-49.8 86.5-69.2 158.7-62.9 234.1 3.5 41.3 12.6 82.1 21.4 121.6z"/>
			</g>
			<g id="&lt;Group&gt;">
				<path id="&lt;Path&gt;" class="s0" d="m1017.5 1928.4c-5.4 23.4-10.9 47.6-15.9 71.6h3.5c4.9-23.7 10.3-47.6 15.7-70.8 13.7-59.7 27.9-121.4 32.8-183.6 4.7-59.1-5.4-116.2-15.3-171.4-5.2-29.3-10.5-59.6-13.7-90.1-8.1-77.1 11.8-155.4 56.1-220.7 22.8-33.5 49.1-57 78.3-69.8 25.9-13.1 65.6 1.9 94.6 12.8 3.8 1.5 7.5 2.9 10.9 4.1 29.1 10.5 57.8 22.7 85.6 34.5 44.6 18.9 90.7 38.5 139.1 51.3 83.8 22.4 167.9 21.9 243.2-1.3 64-19.8 115.7-59.9 145.7-113.1 10.4-18.3 16.1-38 21.6-57.1 3.7-12.8 7.6-26 12.8-38.7 14.7-35.9 41.7-54 87.5-58.4v-3.3c-46.8 4.4-75.6 23.6-90.6 60.4-5.3 12.9-9.2 26.2-12.9 39.1-5.5 18.9-11.1 38.4-21.3 56.4-29.6 52.4-80.6 92-143.8 111.4-73.6 22.8-159.4 23.2-241.4 1.4-48.1-12.8-94.1-32.3-138.6-51.2-27.8-11.8-56.6-24-85.8-34.6-3.4-1.2-7-2.6-10.8-4-29.6-11.2-70.1-26.4-97.3-12.7-29.7 13-56.4 36.9-79.6 71-44.7 65.8-64.8 145-56.7 222.9 3.2 30.6 8.6 60.9 13.8 90.2 9.8 55.1 19.9 112 15.3 170.7-5 61.9-19.1 123.5-32.8 183z"/>
			</g>
			<g id="&lt;Group&gt;">
				<path id="&lt;Compound Path&gt;" fill-rule="evenodd" class="s0" d="m1611.7 1148.8q0 0 0 0c-7.5 0-14.8-1.1-20.5-3-24.7-8.5-45.4-27.7-52.7-49l-0.1-0.3c-1.4-12.4 1-22.2 7.2-29.1 6.1-6.8 15.8-10.5 28-10.5 34 0 77.7 27.8 80.3 60.2 0.7 7.7-1.5 14.3-6.3 19.5-7.2 7.8-20.3 12.2-35.9 12.2zm-70-52.9c7.1 20.2 26.9 38.5 50.6 46.7 5.4 1.8 12.3 2.9 19.4 2.9 14.5 0 27-4.2 33.5-11.2 4.1-4.5 5.9-10.2 5.4-16.9-2.5-30.7-44.4-57.1-77-57.1-11.2 0-20 3.3-25.5 9.4-5.5 6.1-7.6 14.9-6.4 26.2z"/>
			</g>
			<g id="&lt;Group&gt;">
				<path id="&lt;Path&gt;" class="s0" d="m1024.3 2000c0.7-22.8 7.4-48 14-72.5 2.6-9.6 5-18.7 7-27.5 8.8-38 17-75.2 21.5-113.1 9-74.2 1.1-143.8-7.3-217.4-1.7-15.1-3.5-30.6-5.1-46-8.3-80.5 3.5-145.1 36.1-197.4 35.7-57.2 88.3-88.5 140.7-83.8 47.2 4.3 94.2 21.3 139.7 37.7 27.3 9.8 55.5 20 83.2 27.2 34.8 9 73.6 15.1 115.3 18.2 43.9 3.3 94.1 5.6 132.6-8.4 69.3-9.3 139.7-48.9 183.7-103.4 11-13.6 20.4-33.3 30.3-54.3 20-42 42.6-89.6 84-95v-3.3c-43.5 5.3-66.6 53.9-87 96.9-9.9 20.7-19.2 40.3-29.9 53.6-43.6 53.9-113.2 93-181.7 102.2l-0.3 0.1c-38 13.8-87.8 11.5-131.4 8.3-41.5-3.1-80.1-9.2-114.8-18.2-27.5-7.1-55.6-17.3-82.9-27.1-45.6-16.5-92.9-33.5-140.5-37.8-53.7-4.9-107.5 27-143.9 85.3-33 53-45 118.3-36.6 199.5 1.6 15.5 3.4 31 5.1 46 8.4 73.5 16.3 142.8 7.4 216.7-4.5 37.7-12.7 74.9-21.5 112.7-2 8.7-4.4 17.8-7 27.4-6.6 24.7-13.4 50.2-14.1 73.4z"/>
			</g>
			<g id="&lt;Group&gt;">
				<path id="&lt;Path&gt;" class="s0" d="m1050 2000h3.4c14.1-65.2 25.4-132.8 32.8-196.1 8.3-71.2 5.7-139.2 2.8-211.2q-0.3-9.9-0.7-19.7c-2.7-70.4-2.4-133.2 28.6-188.7 30.6-54.9 80.2-85.5 139.6-86.2 46.4-0.5 93 10.3 138 20.7 26.6 6.2 54.2 12.5 81.3 16.5 42.3 6.1 79.5 9.4 113.9 9.9 16.9 0.2 34.4-2.1 51.4-4.4 18.8-2.5 38.4-5.1 56.7-4 13.3 0.8 32.5-6.4 45.3-11.2l1.4-0.6q1.7-0.3 3.9-0.7c15.8-3.1 33.1-7 39.1-13.6 35.6-14.2 67-32 93.2-52.9 23.4-18.6 45-42.1 70.2-76.2 3.9-5.3 7.7-11.1 11.3-16.6 5.4-8.1 10.9-16.4 17.1-23.8 3.6-4.4 8.1-8.1 12.5-11.6 2.8-2.3 5.6-4.7 8.2-7.2v-4.8c-3 3.3-6.6 6.3-10.3 9.4-4.5 3.6-9.2 7.4-13 12-6.3 7.5-11.9 16-17.3 24.2-3.6 5.5-7.4 11.1-11.2 16.4-25 33.9-46.4 57.2-69.6 75.6-26 20.7-57.2 38.4-92.7 52.5l-0.4 0.2-0.3 0.3c-5.4 6.5-27 10.7-37.4 12.8-1.6 0.3-2.9 0.5-4.1 0.8l-1.8 0.6c-12.5 4.7-31.3 11.8-43.9 11-18.7-1-38.3 1.6-57.4 4.1-16.8 2.2-34.2 4.5-50.8 4.3-34.3-0.5-71.4-3.7-113.5-9.8-27-4-54.5-10.3-81.1-16.5-45.2-10.4-91.9-21.2-138.7-20.7-60.7 0.6-111.3 31.9-142.6 87.9-31.3 56.2-31.6 122.1-29 190.4q0.4 9.9 0.8 19.7c2.8 71.9 5.5 139.8-2.8 210.7-7.4 63.4-18.8 131.2-32.9 196.5z"/>
			</g>
			<g id="&lt;Group&gt;">
				<path id="&lt;Path&gt;" class="s0" d="m1077 2000c1.5-5.5 2-13 2.4-21.7 0.2-3.6 0.3-7 0.6-9.1 0.3-2.3 0.6-5.8 0.8-9.9 0.7-9.9 2.1-30.5 6.1-34.2l0.9-0.8 0.2-1.2c1.3-9.7 2.8-19.3 4.2-28.9 3.6-24.7 7.3-50.2 10.1-75.5 6.7-61.3 7.2-123.5 7.6-183.6 0.1-11.8 0.2-23.6 0.3-35.5l0.1-4.9c0.7-61.7 1.3-125.4 32.3-178.6 27.7-47.6 71.2-75.8 125.9-81.6 48.9-5.3 101.2 2.8 151.8 10.6 19.9 3.1 40.5 6.2 60.2 8.4 40.9 4.6 72.4 6.9 102.3 7.3 17.1 0.2 34.7-2.1 51.7-4.3 19-2.4 38.7-5 57.1-3.9 19.5 1.2 42.5-6.8 62.9-13.8 6.3-2.3 12.4-4.3 17.9-6 33.8-10.3 67-24.7 95.8-41.6 52.3-30.6 94.3-74.5 131.8-118.3v-10.4c-38.4 45.3-81.4 91.4-135.2 122.9-28.4 16.6-61 30.8-94.3 40.9-5.7 1.7-11.8 3.9-18.3 6.1-19.7 6.8-42.1 14.6-60.2 13.5-19-1.1-39 1.5-58.4 4-16.8 2.1-34.1 4.3-50.7 4.1-29.6-0.4-61-2.6-101.6-7.1-19.6-2.2-39.2-5.3-60-8.5-51-7.8-103.7-16-153.5-10.6-56.9 6.1-102.2 35.4-131 84.9-31.9 54.8-32.6 119.4-33.2 181.9l-0.1 5c-0.1 11.8-0.2 23.6-0.3 35.4-0.5 60-0.9 122-7.6 183-2.8 25.1-6.5 50.6-10.1 75.2q-2.1 14-4 27.9c-4.9 5.9-6.2 20.6-7.4 37.8-0.2 3.9-0.5 7.4-0.7 9.3-0.4 2.5-0.5 5.9-0.7 9.7-0.3 6.6-0.8 16.9-2.8 22.1z"/>
			</g>
			<g id="&lt;Group&gt;">
				<path id="&lt;Path&gt;" class="s0" d="m1107.1 2000c0.5-36.1 4.4-72.8 8.2-108.3 3-27.2 6-55.3 7.4-82.9 1.4-25.9 2.2-52.4 3-77.9 1.5-46.2 3-94 7.6-140.8 5-50.9 12.6-104.3 44.8-149 30.5-42.5 75.1-65.9 136.1-71.4 55.2-5 111.5-1.4 166 2 63.4 4 128.9 8.2 193.3-1.1 63-9.1 121.4-25.2 173.6-47.7 28-12.1 55.2-26.4 80.7-42.4 14.4-9 28.5-18.7 42-28.9 3.5-2.6 7.1-5.9 10.9-9.3 6.3-5.8 12.8-11.8 19.3-15.2v-3.7c-7.4 3.4-14.6 10-21.5 16.4-3.8 3.4-7.3 6.6-10.7 9.2-13.4 10.1-27.5 19.8-41.8 28.7-25.3 15.9-52.4 30-80.3 42.1-51.9 22.4-110 38.4-172.7 47.5-64 9.2-129.4 5.1-192.6 1.1-54.6-3.5-111-7.1-166.5-2-62.1 5.6-107.4 29.4-138.6 72.7-32.6 45.4-40.3 99.3-45.4 150.6-4.6 47-6.1 94.8-7.6 141.1-0.8 25.5-1.6 51.9-2.9 77.9-1.5 27.5-4.5 55.5-7.4 82.6-3.8 35.6-7.8 72.4-8.3 108.7z"/>
			</g>
			<g id="&lt;Group&gt;">
				<path id="&lt;Path&gt;" class="s0" d="m937 1610c-10.1-28.6-18.2-58.3-26.2-87-8.1-29.6-16.6-60.2-27.1-89.7-18.7-52.5-45.4-87.2-81.6-106.1-18.6-9.6-39.2-14.8-59.2-19.9-7.2-1.8-14.7-3.7-21.8-5.8l-7.1-2c-29.6-8.5-57.6-16.5-86-27.4-66.6-25.5-127.2-46.7-193.5-47.1-44.4-0.4-89.4 4.9-133 10-29.6 3.4-60.2 7-90.2 8.8-65.8 3.9-132.9 5.3-197.8 6.7l-13.5 0.2v6.8l13.7-0.3c64.9-1.4 132-2.8 198-6.7 30.2-1.8 60.9-5.4 90.6-8.8 43.3-5.1 88.1-10.3 132.1-10 65.3 0.4 125.2 21.4 191.2 46.7 28.7 11 56.8 19.1 86.6 27.6l7 2c7.3 2.1 14.8 4 22.1 5.8 19.6 5 39.8 10.1 57.7 19.4 34.6 18 60.3 51.5 78.4 102.4 10.4 29.3 18.8 59.7 26.9 89.2 8 28.8 16.2 58.6 26.3 87.4 22.7 64.5 28.8 126.9 18.7 190.8-4.7 30.2-11.5 60.6-18.1 90q-1.5 6.6-3 13.3c-2.6 11.6-4.1 24.2-5.6 37.4-2.3 19.5-4.7 39.7-10.9 56.3h7.1c5.9-16.9 8.2-36.5 10.5-55.5 1.5-13.1 3-25.4 5.5-36.7q1.5-6.7 2.9-13.3c6.6-29.5 13.5-60 18.3-90.4 10.3-65.1 4-128.5-19-194.1z"/>
			</g>
			<g id="&lt;Group&gt;">
				<path id="&lt;Path&gt;" class="s0" d="m911.3 1624.3c-5.5-17.6-10.6-36.3-15.5-54.4-11.6-42.9-23.6-87.2-43.3-125.7-26.6-52.2-57.5-81.1-110.1-103.1-34.9-14.5-70.9-28.3-105.6-41.6-19.6-7.5-39.9-15.3-59.7-23.1-53.3-24.4-112.6-35.7-176.3-33.7-38.3 1.2-77.1 5.4-114.6 9.5-30.3 3.3-61.7 6.6-92.6 8.4-42.5 2.5-85.9 3.4-127.8 4.3-21.6 0.5-43.8 0.9-65.8 1.6v3.4c22-0.7 44.3-1.2 65.9-1.6 41.9-0.9 85.3-1.9 127.9-4.3 31-1.8 62.4-5.2 92.8-8.5 37.4-4 76.1-8.2 114.3-9.4 63.2-2 122 9.2 174.9 33.4 19.9 7.8 40.2 15.6 59.8 23.1 34.7 13.3 70.7 27.1 105.5 41.6 51.8 21.6 82.2 50.1 108.4 101.5 19.6 38.3 31.5 82.4 43.1 125.1 4.9 18.1 10 36.8 15.5 54.5 20.7 66.3 26.4 124.5 17.9 183.4-3.5 25.1-8.9 50.7-14.1 75.4-8 37.9-16.2 77-18.4 115.9h3.4c2.2-38.6 10.3-77.5 18.3-115.2 5.2-24.8 10.6-50.4 14.2-75.6 8.5-59.4 2.7-118.2-18.1-184.9z"/>
			</g>
			<g id="&lt;Group&gt;">
				<path id="&lt;Path&gt;" class="s0" d="m1133.5 2000c1.3-40.3 1.9-81.2 2.4-120.8 1.3-90.8 2.5-184.6 13.6-276.2 9.3-76.4 41.6-173.8 142.8-203.7 49.9-14.7 105.3-13.6 158.8-12.5q10.6 0.2 20.9 0.3 15.2 0.3 30.4 0.6c52.5 1 106.9 2 160.2-3.3 58.8-5.9 119.8-20.9 181.2-44.7 26.3-10.2 53.4-22.4 80.5-36.2 9.8-4.9 20-11.4 29.9-17.6 15-9.4 30.4-19.2 45.8-24.8v-3.6c-16.1 5.7-32.1 15.8-47.6 25.6-10.2 6.4-19.9 12.5-29.6 17.4-27 13.8-54 25.9-80.3 36.1-61.1 23.6-121.7 38.6-180.3 44.4-53 5.3-107.3 4.3-159.8 3.3q-15.2-0.3-30.3-0.5-10.4-0.2-20.9-0.4c-53.8-1.1-109.4-2.2-159.8 12.7-103 30.4-135.8 129.1-145.2 206.5-11.1 91.8-12.4 185.7-13.6 276.5-0.6 39.7-1.1 80.6-2.5 120.9z"/>
			</g>
			<g id="&lt;Group&gt;">
				<path id="&lt;Path&gt;" class="s0" d="m865.5 1603.3c-2.7-9.7-5.1-19.5-7.7-29.9-11.7-46.9-23.8-95.4-51.5-133.2-29.2-39.8-73.5-64.5-108.8-81.7l-8-3.9c-98-47.6-190.6-92.5-300.4-89.9-59.9 1.4-120.7 6.2-179.5 10.9-68.6 5.4-139.5 11-209.6 11.2v3.4c70.2-0.2 141.2-5.8 209.8-11.3 58.8-4.6 119.6-9.5 179.4-10.9 109-2.6 201.2 42.3 298.8 89.7l8 3.8c35 17 78.8 41.5 107.6 80.7 27.3 37.2 39.3 85.4 50.9 132 2.6 10.4 5.1 20.3 7.7 30 18.3 67.8 33 129.6 28.1 199-2.4 34-7.5 68.4-12.5 101.6-4.7 31.1-9.5 63.2-12.1 95.2h3.4c2.6-31.8 7.3-63.8 12-94.7 5-33.3 10.2-67.7 12.6-101.9 4.9-69.9-9.9-131.9-28.2-200.1z"/>
			</g>
			<g id="&lt;Group&gt;">
				<path id="&lt;Path&gt;" class="s0" d="m837.1 1608.9c-2.1-8.4-4.2-17.2-6.2-25.6-9.5-40.8-19.3-83-43-118.6-22.2-33.6-55.7-61.9-105.4-88.9-94.5-51.5-196.3-101.4-310.1-96-49.3 2.4-99.4 6.6-147.8 10.6-73.6 6.2-149.7 12.6-224.6 12.6v3.4c75.1-0.1 151.2-6.5 224.9-12.6 48.4-4.1 98.4-8.3 147.6-10.6 113-5.4 214.3 44.2 308.4 95.5 49.2 26.8 82.3 54.7 104.2 87.8 23.3 35.2 33.1 77 42.6 117.5 1.9 8.5 4 17.3 6.1 25.7 14.5 58 27.7 120.7 26.5 187.1-0.8 41.8-5.3 84.1-9.6 125.1-2.6 25.5-5.4 52-7.3 78.1h3.4c1.9-26 4.6-52.3 7.3-77.8 4.3-41 8.8-83.4 9.5-125.4 1.3-66.7-12-129.7-26.5-187.9z"/>
			</g>
			<g id="&lt;Group&gt;">
				<path id="&lt;Path&gt;" class="s0" d="m1157.7 1934.8c2.3 21.4 4.7 43.5 6.3 65.2h3.3c-1.5-21.8-4-44-6.3-65.6-3.4-31-6.9-63.1-8-94.7-2.5-71.2-0.2-135.7 7.1-197.2 13.7-115 57.6-186.1 134.2-217.3 48.4-19.8 102.9-21.4 155.7-23.1h0.5c24.8-0.7 49.9-0.8 74.3-1 38.4-0.2 78-0.4 117-3 135.4-9.2 262.1-63.3 358.2-110.1v-3.7c-96 46.8-222.9 101.2-358.4 110.4-38.9 2.7-78.5 2.9-116.8 3.1-24.4 0.1-49.6 0.2-74.4 1h-0.5c-53.1 1.6-108 3.3-156.9 23.2-77.8 31.8-122.4 103.8-136.2 220.1-7.3 61.6-9.7 126.3-7.1 197.7 1.1 31.8 4.6 63.9 8 95z"/>
			</g>
			<g id="&lt;Group&gt;">
				<path id="&lt;Path&gt;" class="s0" d="m810.6 1613.9c-1.3-5.6-2.5-11.2-3.7-16.8-9.8-45.9-19.1-89.2-47.5-127.8-23.2-31.7-55.5-58.8-101.4-85.3-84.9-49-178.3-93.8-286.1-90.3-54.6 1.8-110 6.3-163.5 10.5-68.3 5.4-138.8 11-208.4 11.3v6.7c69.8-0.2 140.5-5.8 208.9-11.3 53.5-4.2 108.8-8.6 163.2-10.4 106.1-3.5 198.5 40.9 282.5 89.3 45.1 26 76.7 52.5 99.4 83.5 27.5 37.4 36.6 80 46.3 125.2q1.8 8.4 3.7 16.8c29 131.1 23.3 267.7 13.6 384.7h6.7c9.8-117.3 15.4-254.4-13.7-386.1z"/>
			</g>
			<g id="&lt;Group&gt;">
				<path id="&lt;Path&gt;" class="s0" d="m1190.3 1937.3c2.4 8.6 6.5 17.8 10.8 27.6 5.2 11.9 10.6 24.1 12.8 35.1h3.4c-2.2-11.6-7.7-24.2-13.1-36.5-4.3-9.6-8.3-18.7-10.6-27.1-7.3-25.9-12.9-53.6-16.6-82.2-7.4-56.6-7.9-117.4-1.5-180.7 11.4-111.9 53.6-184.1 129.1-220.7 73.8-35.8 160.9-36.2 245.2-36.6 33.8-0.2 65.7-0.3 97-2.6 60.1-4.4 122.5-16.4 185.3-35.6 29.2-8.9 57.6-18.8 84-28.1 9-3.3 18.3-7.3 28.2-11.5 18.6-8 37.8-16.2 55.7-19.3v-3.4c-18.4 3.1-38 11.5-57 19.6-9.8 4.2-19.2 8.2-28 11.4-26.4 9.3-54.7 19.2-83.8 28.1-62.7 19.1-124.8 31-184.6 35.4-31.2 2.3-63.1 2.4-96.8 2.6-84.6 0.4-172.2 0.8-246.7 36.9-41.2 20-73.2 51.4-95.3 93.4-18.4 35.1-30.4 78.9-35.6 130.1-6.5 63.6-6 124.6 1.4 181.4 3.8 28.8 9.4 56.6 16.7 82.7z"/>
			</g>
			<g id="&lt;Group&gt;">
				<path id="&lt;Path&gt;" class="s0" d="m769.3 1625.2c-6.3-50.1-14.5-98.5-45.4-140.7-22-30.1-53-57.2-94.8-83.1-43.6-27-85.4-48.3-124.2-63.2-44.3-17.1-96.5-23.4-164.3-19.8-110.1 6-224.7 12.9-340.6 20.7v3.3c116-7.7 230.6-14.7 340.8-20.6 67.3-3.6 119.1 2.6 162.9 19.5 38.6 14.9 80.2 36.1 123.7 63 41.4 25.6 72.1 52.5 93.8 82.2 30.5 41.6 38.3 87.6 44.8 139.2 16.2 129.4 18.5 261.5 18.5 374.3h3.4c0-112.9-2.3-245.1-18.6-374.8z"/>
			</g>
			<g id="&lt;Group&gt;">
				<path id="&lt;Path&gt;" class="s0" d="m749.2 1846.9c-4.8-67-9.8-136.2-8.3-204.5v-0.1-0.1c-4.4-46.5-9-94.7-37-138.1-21.1-32.7-51.6-61.8-93.1-89-33.2-21.8-72.1-42-115.6-60.1-48-19.9-100.8-20.6-155.1-19.4-36.6 0.8-73.8 3.1-109.8 5.4-22.1 1.4-45 2.9-67.5 4q-23.5 1.1-47.1 2.2-24.3 1.1-48.6 2.2c-6.7 0.4-13.6 0.5-21 0.6-15.6 0.2-31.7 0.4-46.1 2.8v3.4c14.3-2.4 30.5-2.7 46.2-2.9 7.4-0.1 14.4-0.2 21-0.5q24.3-1.1 48.7-2.3 23.5-1 47.1-2.2c22.5-1 45.4-2.5 67.5-3.9 35.9-2.3 73.1-4.7 109.7-5.5 53.9-1.1 106.3-0.5 153.7 19.2 43.3 18 82 38.2 115.1 59.8 41.1 26.9 71.2 55.7 92 88 27.6 42.7 32.1 90.4 36.5 136.5-1.4 68.5 3.5 137.7 8.3 204.8 3.6 50 7.3 101.7 8.3 152.8h3.4c-1-51.2-4.7-103-8.3-153.1z"/>
			</g>
			<g id="&lt;Group&gt;">
				<path id="&lt;Path&gt;" class="s0" d="m1221.5 1948.4c2.6 5.8 7 12.8 11.7 20.2 6.4 10.4 13.6 21.9 16.6 31.4h3.5c-3-10.2-10.5-22.3-17.3-33.1-4.6-7.4-8.9-14.3-11.4-19.9-12-27-21.4-54.1-27.7-80.6-13.3-55.2-16.9-117.1-10.4-179 11.8-112.3 59.9-188.3 143-226 70.9-32.1 154.1-33 234.6-33.8 34.4-0.4 67-0.7 98.7-3.3 53-4.4 107.7-14.8 172.1-32.8 30-8.4 60.5-18 86.7-26.4 7.4-2.4 15.1-5.4 23.3-8.5 18.5-7.1 37.5-14.4 55.1-15.7v-3.4c-18.1 1.3-37.5 8.8-56.3 16-8.2 3.1-15.8 6-23.1 8.4-26.2 8.3-56.7 18-86.6 26.4-64.2 17.9-118.7 28.3-171.5 32.6-31.6 2.7-64.1 3-98.4 3.3-80.9 0.9-164.5 1.7-236 34.2-84.2 38.1-133 115.1-144.9 228.6-6.6 62.3-3 124.6 10.4 180.2 6.4 26.7 15.8 54 27.9 81.2z"/>
			</g>
			<g id="&lt;Group&gt;">
				<path id="&lt;Path&gt;" class="s0" d="m703 1913.5c-3.2-24.6-6.4-50-8.8-75.1-4.4-46.6-2.5-91-0.5-138.1 0.4-10.5 0.9-21 1.3-31.6 2-57.5-1.9-104.7-27.5-147.7-19.5-33-48.2-62.9-85.3-88.8-75.4-52.7-158.1-75.1-268-72.7-48.4 1.1-97.7 4.6-145.4 8-55.3 3.9-112.5 7.9-168.8 8.2v3.4c56.4-0.3 113.6-4.3 169.1-8.3 47.6-3.3 96.8-6.8 145.2-7.9 109.1-2.4 191.2 19.8 266 72.1 36.7 25.6 65 55.1 84.4 87.7 25.1 42.3 28.9 88.9 26.9 145.9-0.4 10.6-0.8 21.1-1.3 31.6-2 47.2-3.8 91.7 0.6 138.5 2.4 25.2 5.6 50.6 8.7 75.2 3.6 28.2 7.3 57.3 9.8 86.1h3.3c-2.4-29-6.1-58.2-9.7-86.5z"/>
			</g>
			<g id="&lt;Group&gt;">
				<path id="&lt;Path&gt;" class="s0" d="m1276.5 1978.8c4.2 7 8.6 14.1 12.8 21.2h3.9c-4.5-7.7-9.2-15.4-13.8-22.9-21.1-34.8-43-70.7-57.4-109.5-23.6-64-22.7-131.6-17.7-177 11-100.3 62.8-178 142.2-213.1 70.9-31.3 152.6-32.8 231.6-34.2 29.8-0.6 60.5-1.1 89.6-3.3 53.2-4.1 111-14.4 176.5-31.6 19.6-5.1 39.4-10.7 58.6-16 9.5-2.7 19.1-5.3 28.6-8 6.1-1.6 12.4-3.6 19-5.8 16.5-5.2 33.6-10.7 49.6-11.5v-3.4c-16.4 0.8-33.8 6.4-50.7 11.7-6.5 2.1-12.8 4.1-18.8 5.8q-14.3 3.9-28.6 7.9c-19.2 5.4-39 10.9-58.5 16-65.4 17.2-122.9 27.5-176 31.5-28.9 2.2-59.6 2.8-89.3 3.3-79.4 1.4-161.5 2.9-233 34.6-80.5 35.5-133 114.2-144.1 215.7-5.1 45.8-6 114 17.9 178.6 14.4 39.1 36.4 75.1 57.6 110z"/>
			</g>
			<g id="&lt;Group&gt;">
				<path id="&lt;Path&gt;" class="s0" d="m659.1 1900.7c-2.6-17.8-5.2-36.1-7.3-54.2-6.5-56.3-2.6-110.2 2.7-160 5.3-49.6 8.3-97.8-12.4-142.5-16.2-34.9-42.8-66.4-79.1-93.9-121.1-91.3-272.6-77.9-419.1-65-50.1 4.4-97.5 8.6-143.9 8.8v3.4c46.7-0.3 96.2-4.7 144.2-8.9 145.9-12.8 296.7-26.1 416.8 64.4 35.8 27.1 62.1 58.3 78 92.6 20.4 44 17.4 91.6 12.2 140.7-5.3 50-9.3 104.1-2.7 160.8 2.1 18.1 4.7 36.5 7.2 54.3 4.7 32.3 9.4 65.6 11.3 98.8h3.3c-1.9-33.4-6.6-66.9-11.2-99.3z"/>
			</g>
			<g id="&lt;Group&gt;">
				<path id="&lt;Path&gt;" class="s0" d="m1246.9 1887.2c10.6 19.9 22.9 39.3 34.8 58q3.1 4.9 6.2 9.8c2.2 3.5 5.3 7.7 8.5 12.1 7.5 10.3 16.4 22.6 19.9 32.9h3.6c-3.5-11.1-12.9-24.1-20.8-34.9-3.2-4.4-6.2-8.5-8.3-11.9q-3.1-4.9-6.3-9.8c-11.8-18.7-24.1-38-34.6-57.8-21.8-41-33.9-87.7-35.8-138.7-3.5-95.6 31.5-181 93.6-228.5 77-58.9 184.4-61.3 279.2-63.4 19-0.4 36.9-0.8 54.5-1.6 89.9-4.1 177.4-25.1 262-45.5 31.6-7.6 64.2-15.5 96.6-22.4v-3.4c-32.7 6.9-65.6 14.8-97.4 22.5-84.4 20.4-171.8 41.4-261.3 45.4-17.7 0.8-35.5 1.2-54.5 1.7-95.2 2.1-203.2 4.5-281.2 64-33.3 25.5-58.6 60.4-75 103.8-14.6 38.6-21.5 82.7-19.8 127.5 1.9 51.5 14.1 98.7 36.1 140.2z"/>
			</g>
			<g id="&lt;Group&gt;">
				<path id="&lt;Path&gt;" class="s0" d="m612.8 1883c-6.5-56-13.3-113.8-6.7-171.3 1-8.4 2.2-17 3.5-26.1 5.4-39.3 11.1-80.1-0.5-116.6-10.6-33.6-31.7-65.6-60.9-92.4-67.4-61.7-148.3-75.8-249.1-77.9-54.2-1.1-109 2.8-162 6.6-44.9 3.2-91.3 6.6-137.1 6.8v3.3c45.9-0.2 92.4-3.5 137.4-6.7 52.9-3.8 107.6-7.8 161.7-6.6 100 2.1 180.2 16 246.8 77 28.8 26.4 49.6 57.8 60 90.9 11.3 35.8 5.7 76.2 0.3 115.2-1.2 9.1-2.4 17.6-3.4 26.1-6.7 57.9 0.1 115.9 6.6 172.1 4.5 38.1 9.1 77.5 9.4 116.6h3.4c-0.4-39.3-4.9-78.8-9.4-117z"/>
			</g>
			<g id="&lt;Group&gt;">
				<path id="&lt;Path&gt;" class="s0" d="m1269 1882.7c9.3 15.5 19.7 30.7 29.7 45.5 15.5 22.9 31.6 46.6 44.1 71.8h7.6c-13-26.7-29.8-51.5-46.2-75.6-9.9-14.7-20.2-29.8-29.5-45.2-26.4-44-39.4-89.6-40.9-143.6-2.6-93.7 40.2-174.8 114.6-217 77.1-43.8 168.4-45.4 256.7-47 17-0.3 34.5-0.6 51.4-1.2 71.4-2.6 141.2-17.5 208.8-31.9 43.9-9.3 89.3-19 134.7-25.1v-6.8c-45.9 6.2-91.8 15.9-136.1 25.4-67.3 14.3-136.8 29.1-207.7 31.7-16.8 0.6-34.3 0.9-51.2 1.2-89.2 1.6-181.4 3.2-259.9 47.8-76.6 43.5-120.7 126.9-118 223.1 1.5 55.2 14.8 101.9 41.9 146.9z"/>
			</g>
			<g id="&lt;Group&gt;">
				<path id="&lt;Path&gt;" class="s0" d="m555 1866.5c-1.5-19.1-3.9-38.4-6.2-57.1-3-24.6-6.1-49.9-7.4-75.1-1.2-21.7-0.1-43.6 0.9-64.8 3-61.4 5.9-119.4-42-169.5-59.5-62.4-144.4-69.9-233.5-72.6-42.7-1.3-89.2-0.7-142.2 1.8-21.7 1-44.8 2.4-70.6 4.2-2.8 0.2-7.6 0.1-13.2 0.1-17.1-0.3-32.2-0.2-40.8 2.4v3.5c8.7-3 28.3-2.7 40.7-2.6 5.7 0.1 10.6 0.2 13.5 0 25.8-1.8 48.9-3.2 70.6-4.2 52.8-2.6 99.2-3.2 141.9-1.9 88.4 2.7 172.5 10.2 231.1 71.6 47 49.1 44.1 106.4 41.2 167.1-1.1 21.2-2.2 43.2-1 65.1 1.3 25.3 4.4 50.7 7.5 75.3 2.2 18.7 4.6 37.9 6.2 56.9 1 48.2-4.5 92.2-10.6 133.3h3.4c6.1-41.1 11.6-85.1 10.5-133.5z"/>
			</g>
			<g id="&lt;Group&gt;">
				<path id="&lt;Path&gt;" class="s0" d="m1293.2 1887.1c6.6 10 13.6 20.1 20.3 29.8 7.3 10.5 14.7 21.3 21.8 32.1 2 3.1 4.3 6.5 6.9 10.1 8.7 12.6 19.3 27.8 22.9 40.9h3.5c-3.6-13.9-14.6-29.8-23.7-42.8-2.5-3.6-4.8-7-6.8-10-7.1-10.9-14.6-21.7-21.8-32.2-6.7-9.7-13.7-19.8-20.3-29.8-31.1-47.4-47-91.6-49.9-138.9-5.8-91.7 31.4-169.4 102.1-213.2 78.8-48.8 173.3-50.2 264.6-51.5q9.3-0.1 18.5-0.2c58-1 123.7-2.1 185.8-16.9 25.2-4.2 50.9-9.1 75.6-13.9 35.1-6.8 71.5-13.8 107.3-18.7v-3.4c-36.1 4.9-72.6 11.9-107.9 18.8-24.8 4.7-50.4 9.7-75.7 13.9-61.8 14.7-127.4 15.8-185.2 16.8q-9.2 0.1-18.4 0.3c-91.9 1.3-186.8 2.6-266.4 52-71.7 44.5-109.5 123.3-103.7 216.2 3 48 19.1 92.6 50.5 140.6z"/>
			</g>
			<g id="&lt;Group&gt;">
				<path id="&lt;Path&gt;" class="s0" d="m507.1 1780.3q-1.7-10.1-3.5-20.1c-6.3-36-12.2-69.9-13.5-106.1q-0.2-6.5-0.4-13.2c-1-37.3-2-75.9-23.2-108.2-44.3-67.6-125.2-77.9-204.3-82.5-53.1-3.2-106.3-0.2-157.9 2.6-34.1 2-69.4 3.9-104.3 4.1v6.7c35.1-0.2 70.5-2.1 104.7-4 51.3-2.9 104.4-5.8 157.1-2.7 80.6 4.8 156.4 14.4 199 79.5 20.2 30.7 21.2 68.3 22.2 104.7q0.2 6.6 0.4 13.2c1.3 36.7 7.3 70.9 13.6 107.1q1.8 9.9 3.5 20c11.6 68.1 18.8 154-26.6 218.6h8.2c43.8-66.1 36.6-151.6 25-219.7z"/>
			</g>
			<g id="&lt;Group&gt;">
				<path id="&lt;Path&gt;" class="s0" d="m1314.2 1888.9c5.2 7.5 10.8 15.1 16.8 23.2 19.9 26.8 42.3 56.9 50.5 87.9h3.5c-8.2-31.9-31-62.6-51.3-89.9-6-8.1-11.6-15.7-16.8-23.1-26.3-37.9-51.3-80.1-56.1-131.3-8.4-90.7 23.4-164.7 89.7-208.3 79.8-52.5 176.6-53.1 270.3-53.7l16.1-0.1c56.8-0.5 115.5-0.9 172.5-10.5 16.6-2.8 33.5-5.9 49.8-8.9 45.9-8.5 93.4-17.3 140.8-20.2v-3.4c-47.7 2.9-95.3 11.7-141.4 20.2-16.3 3.1-33.2 6.2-49.8 9-56.7 9.6-115.2 10-171.9 10.4l-16.1 0.1c-94.2 0.6-191.5 1.2-272.2 54.3-34.7 22.8-60.1 53.9-75.6 92.2-14.4 35.5-19.6 75.6-15.5 119.2 4.9 52 30.1 94.6 56.7 132.9z"/>
			</g>
			<g id="&lt;Group&gt;">
				<path id="&lt;Path&gt;" class="s0" d="m461.6 1819.8c-4-26.9-11.5-53.7-18.8-79.7-3.6-12.9-7.3-26.3-10.6-39.5-3.4-14.1-5.9-29.1-8.4-43.6-4.4-26.4-9-53.6-19.4-77.8-29.6-68.3-100.5-85-159-91.8-55.2-6.5-110.6-3.8-164.1-1.3-26.6 1.3-54 2.6-81.3 2.8v3.3c27.3-0.2 54.8-1.5 81.4-2.7 53.4-2.6 108.6-5.2 163.6 1.2 57.6 6.8 127.4 23.1 156.3 89.8 10.3 23.9 14.8 50.9 19.2 77 2.4 14.6 5 29.7 8.5 43.9 3.2 13.2 7 26.6 10.6 39.6 7.2 25.9 14.7 52.6 18.7 79.3 9.9 66.5-18.1 136-71.7 179.7h5.3c23.9-20.3 43-45.8 55.5-74.6 14.6-33.7 19.5-70.2 14.2-105.6z"/>
			</g>
			<g id="&lt;Group&gt;">
				<path id="&lt;Path&gt;" class="s0" d="m1341 1891.4c3.7 5.2 8.2 11 12.9 17.1 20 26.3 46.9 61.5 50.4 91.5h3.4c-3.5-31-30.8-66.8-51.2-93.5-4.6-6.1-9.1-11.9-12.8-17.1-29.2-40.7-51.1-76.9-62.7-121.2-20.4-77.8 14-162.3 85.4-210.3 81-54.4 186.1-50.4 278.8-46.8l1.2 0.1c68.7 2.6 137.6-5 204.3-12.4 48.8-5.5 99.3-11.1 149.3-12.6v-3.3c-50.2 1.5-100.8 7.1-149.7 12.5-66.5 7.4-135.3 15-203.8 12.4l-1.2-0.1c-93.2-3.5-198.9-7.6-280.7 47.4-72.7 48.8-107.6 134.8-86.9 214 11.8 44.7 33.8 81.3 63.3 122.3z"/>
			</g>
			<g id="&lt;Group&gt;">
				<path id="&lt;Path&gt;" class="s0" d="m403.9 1745c-6-17.4-11.5-35.4-16.8-52.8-6-19.8-12.2-40.4-19.4-60.2-47.2-131.7-184.7-125-305.9-119.1-21.7 1-42.2 2-61.8 2.2v3.4c19.6-0.2 40.3-1.2 62-2.3 120-5.8 256.1-12.4 302.6 116.9 7.1 19.8 13.3 40.3 19.3 60.1 5.3 17.4 10.8 35.4 16.8 52.9 13 37.6 24.3 77.8 18.7 117.6-8.3 59.2-52.3 98.7-96.2 136.3h5.2c43.3-37.3 86-76.8 94.3-135.9 5.7-40.4-5.7-81.1-18.8-119.1z"/>
			</g>
			<g id="&lt;Group&gt;">
				<path id="&lt;Path&gt;" class="s0" d="m1356.9 1888.3c24.8 34.5 50.4 70 62.6 111.7h3.5c-12.3-42.6-38.2-78.7-63.4-113.6-24.2-33.7-49.3-68.5-61.8-109-23.7-76.6 5.3-159.5 72.1-206.2 79-55.2 178.8-54.2 282.8-48 62.3 3.7 124.9-0.2 185.4-3.9 53-3.2 107.7-6.6 161.9-4.9v-3.3c-54.3-1.8-109.1 1.6-162.1 4.9-60.4 3.7-122.9 7.5-185 3.8-104.6-6.2-205-7.2-284.9 48.6-32.9 23-57.4 55.2-70.8 93-13.6 38.3-14.5 78.7-2.6 117 12.6 41 37.9 76.1 62.3 109.9z"/>
			</g>
			<g id="&lt;Group&gt;">
				<path id="&lt;Path&gt;" class="s0" d="m1373.3 1878.4c27.4 38.7 53.2 75.4 64.7 121.6h3.6c-11.7-47.3-39.1-86.1-65.5-123.6-14.9-21-30.2-42.7-42.8-65.8-41.6-76.5-27.2-163.4 35.7-216.2 77.8-65.5 186.9-61.7 283-53.1q12.6 1.2 25.2 2.4c47.9 4.5 97.4 9.2 146.4 6.4 34.4-1.9 64.8-2.2 93.1-0.7 14.2 0.7 28.5 3.2 42.3 5.7 13.4 2.4 27.3 4.9 41 5.7v-3.4c-13.5-0.8-27.1-3.2-40.4-5.6-13.9-2.5-28.3-5.1-42.7-5.8-28.4-1.4-59-1.2-93.5 0.8-48.7 2.7-98.1-1.9-145.9-6.5q-12.6-1.2-25.2-2.3c-96.8-8.7-206.6-12.5-285.5 53.8-64.1 53.9-78.8 142.5-36.5 220.4 12.7 23.3 28.1 45.1 43 66.2z"/>
			</g>
			<g id="&lt;Group&gt;">
				<path id="&lt;Path&gt;" class="s0" d="m345.1 1700.6c-2.8-6.6-5.6-13-8.2-19.3-18-43.1-49.1-102.9-111.4-124-62.6-21.3-128.6-16.7-192.5-12.2-10.8 0.7-22 1.5-33 2.1v3.4c11.1-0.7 22.3-1.4 33.3-2.2 63.5-4.4 129.1-8.9 191.1 12.1 61 20.7 91.7 79.6 109.4 122.1 2.6 6.3 5.4 12.7 8.2 19.3 21.2 49.3 45.1 105.2 35.4 157.3-9.9 53.4-53.4 88.7-95.5 122.8-7.6 6.1-14.9 12-21.9 18h5.2c6.1-5.1 12.3-10.2 18.8-15.4 42.6-34.5 86.6-70.1 96.8-124.8 9.8-53.1-14.4-109.5-35.7-159.2z"/>
			</g>
			<g id="&lt;Group&gt;">
				<path id="&lt;Path&gt;" class="s0" d="m1387.9 1873c27.8 38.8 56.5 78.8 66.4 127h3.4c-9.8-49.2-38.9-89.7-67-129-20-27.8-40.6-56.6-54.1-88.1-31-71.9-4-152.7 65.5-196.4 79.7-50.1 177.9-41.4 280-27 49 6.9 100.3 11.4 157 13.9 59.8 2.6 112.7 14.5 160.9 27.1v-3.4c-48.2-12.6-101-24.4-160.8-27.1-56.5-2.5-107.8-7-156.6-13.9-102.8-14.4-201.7-23.2-282.3 27.5-71 44.7-98.5 127.1-66.9 200.6 13.8 31.9 34.5 60.8 54.5 88.8z"/>
			</g>
			<g id="&lt;Group&gt;">
				<path id="&lt;Path&gt;" class="s0" d="m1400.4 1862.5c31.5 42.8 64.1 87.1 68.6 137.5h3.4c-4.5-51.5-37.5-96.2-69.3-139.5-17.2-23.3-33.4-45.3-45.3-68.1-39-74.9-13.1-158.1 63-202.3 81.7-47.4 189.5-29.9 284.1-9.8 34.1 7.3 69.4 11.7 103.6 15.9 64.4 7.9 130.9 16.2 191.5 44.2v-3.7c-60.7-27.7-127-36-191.1-43.9-34.1-4.2-69.3-8.5-103.3-15.8-95.2-20.2-203.8-37.9-286.5 10.2-77.7 45.1-104.1 130.1-64.3 206.7 12 23.1 28.3 45.2 45.6 68.6z"/>
			</g>
			<g id="&lt;Group&gt;">
				<path id="&lt;Path&gt;" class="s0" d="m1417.9 1854c9.9 13.7 20.1 27.9 29.4 42.3 12.8 20.2 21.6 37.8 27.7 55.2 2.7 7.5 4.4 15.6 6 23.5 1.8 8.3 3.6 16.9 6.5 25h3.6c-3.1-8.2-5-17.1-6.8-25.7-1.7-8-3.4-16.2-6.1-23.9-6.2-17.7-15.1-35.5-28.1-55.9-9.3-14.6-19.5-28.8-29.4-42.5-14.3-19.7-29-40.1-41-61.8-19.2-34.7-23.5-71.4-12.7-106 11.4-36 38.6-66.2 76.8-84.9 78.4-38.4 168.3-16.3 247.6 3.2 8.4 2.1 16.7 4.1 24.9 6.1 22.4 5.3 45.5 10.3 67.7 15.2 72.4 15.7 147.2 32 216 63.1v-3.7c-68.7-30.8-143.2-47-215.3-62.7-22.2-4.8-45.2-9.9-67.6-15.2-8.2-1.9-16.5-4-24.9-6-79.9-19.7-170.4-42-249.9-3-39 19.1-66.8 50-78.5 86.9-11 35-6.4 73.6 13 108.7 12.1 21.8 26.8 42.3 41.1 62.1z"/>
			</g>
			<g id="&lt;Group&gt;">
				<path id="&lt;Path&gt;" class="s0" d="m1435.1 1851c33 46.2 67.1 93.9 68.5 149h3.4c-1.4-56.1-35.9-104.3-69.2-151-10-14-19.5-27.2-27.9-40.5-20.4-32.1-38.4-67-32-104.6 6.3-36.5 32.1-70.1 68.8-90 88.3-47.5 207.1-6.4 270.9 15.6 30.7 10.6 62.7 19 93.6 27.1 15.9 4.2 32.3 8.5 48.3 13.1 28.4 8 53 15.6 75.4 23.2 7.8 2.6 16 6.3 24.8 10.3 13.5 6.1 27.4 12.4 40.3 14.8v-3.5c-12.4-2.4-25.8-8.4-38.9-14.4-8.8-4-17.2-7.8-25.1-10.4-22.4-7.6-47.1-15.2-75.6-23.2-16-4.6-32.5-8.9-48.4-13.1-30.8-8.1-62.7-16.5-93.2-27-43.3-15-89.7-29.6-136.3-35.4-54.7-6.8-99.7-0.3-137.3 20-37.7 20.3-64.1 54.8-70.6 92.3-6.6 38.8 11.7 74.3 32.4 107 8.5 13.4 18 26.6 28.1 40.7z"/>
			</g>
			<g id="&lt;Group&gt;">
				<path id="&lt;Path&gt;" class="s0" d="m234.1 1642.5c-61.8-60.4-145.2-53-225.9-45.8q-4.1 0.3-8.2 0.7v3.4q4.2-0.4 8.5-0.8c79.9-7 162.5-14.4 223.2 44.9 49.2 48 95.1 132.9 83.5 195.8-13.7 74.1-94.8 116.2-142.2 134.7-53.2 26.8-99.8-17.6-140.8-56.7-11.3-10.8-22-20.9-32.2-29v4.3c9.5 7.7 19.4 17.2 29.8 27.1 32.9 31.3 69.2 66 110 66 11.2 0 22.7-2.6 34.6-8.6 47.8-18.8 130.2-61.5 144.1-137.2 11.9-64-34.7-150.2-84.4-198.8z"/>
			</g>
			<g id="&lt;Group&gt;">
				<path id="&lt;Path&gt;" class="s0" d="m1455.3 1841.1c32.9 47.7 66.9 97.1 68.5 158.9h3.4c-1.7-62.8-35.9-112.6-69.1-160.8-8.2-11.8-16.6-24-24.4-36.2-20.5-32.1-38.2-66.7-29.6-102.2 7.8-32.1 34.8-61.2 70.3-75.8 79.9-32.7 171 5 244.2 35.3l6.4 2.7c49.3 20.3 101.1 36.3 151.3 51.8 40.9 12.6 83.1 25.6 123.7 41v-3.6c-40.4-15.2-82.2-28.1-122.7-40.6-50.1-15.5-101.9-31.4-151-51.7l-6.4-2.7c-73.8-30.6-165.6-68.6-246.8-35.3-36.5 15-64.2 45-72.3 78.1-8.9 36.8 9.2 72.1 30.1 104.8 7.8 12.2 16.2 24.4 24.4 36.3z"/>
			</g>
			<g id="&lt;Group&gt;">
				<path id="&lt;Path&gt;" class="s0" d="m1460.8 1814.7c39.9 58.1 77.6 113 79.2 185.3h3.4c-1.6-73.3-39.6-128.7-79.8-187.2l-2.5-3.7c-19.9-28.9-42.5-61.7-36.7-97.3 5.5-34.1 33.3-64.3 67.6-73.6 78.4-20.2 146 10.8 217.6 43.7 8 3.6 16.3 7.4 24.4 11.1 45.1 20.2 93.1 35 139.6 49.3 41.9 13 85.3 26.3 126.4 43.6v-3.6c-40.9-17.1-83.8-30.4-125.4-43.2-46.4-14.3-94.3-29.1-139.2-49.2-8.2-3.6-16.4-7.4-24.4-11.1-69-31.6-140.2-64.4-219.9-43.9-35.5 9.7-64.3 41.1-70 76.3-6 37 16.9 70.4 37.2 99.9z"/>
			</g>
			<g id="&lt;Group&gt;">
				<path id="&lt;Path&gt;" class="s0" d="m240.8 1737.9c-15.4-26.7-37.7-51.6-61.2-68.2-24.3-17.1-54.2-27.1-86.6-28.8-20.4-1-40.8 1.6-58.3 4.1l-0.3 0.1q-2.6 0.9-5.7 2.1c-8.6 3.2-19.7 7.3-28.7 8.8v3.4c9.4-1.5 21-5.8 29.9-9.1q3-1.1 5.5-2c17.3-2.5 37.4-5 57.4-4 31.8 1.7 61.1 11.4 84.8 28.2 46.4 32.8 89.3 99 80.6 152.8-4.3 26.3-21 51.3-45.9 68.4-25.7 17.6-55.9 24.5-83 18.9-23.3-4.9-46.2-17.4-72.1-39.5-9.6-8.2-18.6-18.2-27.3-28-9.5-10.5-19.2-21.2-29.9-30v4.3c9.7 8.4 18.6 18.3 27.4 28 8.7 9.8 17.8 19.9 27.6 28.3 26.3 22.4 49.7 35.2 73.6 40.2 6.5 1.3 13 2 19.7 2 22.3 0 45.5-7.4 65.9-21.4 25.7-17.7 42.9-43.4 47.3-70.6 5.4-33.7-8.3-66.5-20.7-88z"/>
			</g>
			<g id="&lt;Group&gt;">
				<path id="&lt;Path&gt;" class="s0" d="m1479.1 1806.3c44.6 67 76.5 120.5 77.4 193.7h6.8c-1-75.1-33.3-129.4-78.6-197.4l-1.4-2.1c-17.7-26.4-39.6-59.3-30.9-91.4 6.5-23.7 28.5-43.4 58.9-52.5 59.5-17.9 122.8 15.5 178.5 45 11.5 6.1 22.4 11.8 32.9 17 32.9 16.1 65.6 25.3 100.3 35.2 9 2.5 18.4 5.2 27.6 7.9 51.9 15.5 102.4 36.2 149.4 56.4v-7.4c-46.4-19.9-96.3-40.2-147.4-55.4-9.4-2.8-18.7-5.4-27.7-8-34.4-9.8-66.9-19-99.2-34.8-10.5-5.1-21.3-10.8-32.7-16.8-56.9-30.1-121.4-64.3-183.6-45.6-32.7 9.8-56.4 31.2-63.5 57.3-9.5 35 13.4 69.3 31.8 96.8z"/>
			</g>
			<g id="&lt;Group&gt;">
				<path id="&lt;Path&gt;" class="s0" d="m1521.7 1799.2c18.3 26.5 39 56.4 49.4 90.1 10.9 35.3 11.8 73.9 11.4 110.7h3.4c0.3-37.1-0.6-75.9-11.6-111.7-10.5-34.2-31.4-64.4-49.8-91q-2.1-3.1-4.5-6.3c-15.2-21.6-34.2-48.5-21.7-73.8 17.5-35.3 60.3-28.5 73-25.6 34.8 8 66.5 25.6 97.1 42.7 32.4 18.1 66 36.8 103.6 44.2 93.2 20.4 165.8 49 228 89.8v-4.1c-62.2-40.4-134.6-68.7-227.3-88.9-37.1-7.4-70.5-26-102.7-43.9-30.8-17.2-62.7-35-98-43.1-35.5-8.2-64.1 2.1-76.7 27.4-13.4 27.1 6.2 54.9 22 77.2q2.3 3.3 4.4 6.3z"/>
			</g>
			<g id="&lt;Group&gt;">
				<path id="&lt;Path&gt;" class="s0" d="m1587.8 1812.6c19.1 52.1 18.2 103.4 17.3 157.7-0.2 9.7-0.3 19.7-0.4 29.7h3.4c0-10 0.2-19.9 0.4-29.6 0.9-54.7 1.7-106.3-17.6-158.9-1.2-3.3-2.7-6.9-4.3-10.8-5.8-13.7-13-30.7-7.2-37.8 3.1-3.8 10.1-4.6 20.9-2.5 21.2 4.2 43.5 13.7 65 22.9 9.7 4.1 18.7 7.9 27.7 11.3l4.6 0.9c105.5 18.6 236.3 41.7 302.4 133.4v-5.7c-67.6-89.7-197.2-112.5-301.9-131l-4.1-0.8c-8.8-3.3-17.8-7.1-27.3-11.2-21.8-9.2-44.2-18.8-65.8-23.1-12.2-2.4-20.1-1.2-24.1 3.7-7.1 8.7 0.2 26 6.7 41.3 1.6 3.8 3.1 7.4 4.3 10.5z"/>
			</g>
			<g id="&lt;Group&gt;">
				<path id="&lt;Path&gt;" class="s0" d="m1645.4 2000c3.1-7.6 4.1-18.9 5.1-29.1 0.6-5.8 1.1-11.2 1.9-14.8 3.4-15.2 8.6-34.8 18.9-52.2 22.8-38.5 64.6-41.4 98.5-39.6 42.6 2.3 83.3 16 114.8 38.8 25.1 18.2 62.4 59.4 62 96.9h3.4c0.5-38.9-36.8-80.3-63.5-99.7-31.9-23.1-73.3-37-116.6-39.3-34.8-1.9-77.7 1.1-101.5 41.2-10.6 17.8-15.9 37.8-19.3 53.1-0.8 3.8-1.4 9.4-1.9 15.2-1 10.3-2.2 22.5-5.4 29.5z"/>
			</g>
			<g id="&lt;Group&gt;">
				<path id="&lt;Path&gt;" class="s0" d="m1680.4 2000c11.8-45.4 50.6-87.6 99.1-83.3 44.4 4 92.9 31.2 104.7 83.3h3.4c-5.1-23.4-17.7-43.7-36.8-59.1-19.2-15.4-44.4-25.2-71-27.6-50.7-4.4-91 39.6-102.9 86.7z"/>
			</g>
		</g>
	</g>
</svg>